<svg width="288" height="96" viewBox="0 0 288 96" fill="none" xmlns="http://www.w3.org/2000/svg">
    <g clip-path="url(#clip0)">
        <path d="M35.0092 21.9886C35.0092 27.7655 39.6914 32.4482 45.4684 32.4482C51.2447 32.4482 55.9272 27.7655 55.9272 21.9886C55.9272 16.2126 51.2447 11.5298 45.4684 11.5298C39.6914 11.5298 35.0092 16.2126 35.0092 21.9886Z" fill="#F89A0F"/>
        <path d="M4.03223 98.0731C4.03223 98.0731 1.91952 108.364 -0.993702 108.364C-3.90614 108.364 -5.96452 94.8397 -5.96452 94.8397L4.03223 98.0731Z" fill="#F57815"/>
        <path d="M26.3576 98.0731C26.3576 98.0731 28.4702 108.364 31.3829 108.364C34.296 108.364 36.354 94.8397 36.354 94.8397L26.3576 98.0731Z" fill="#F57815"/>
        <path d="M43.0039 60.9624C43.0039 60.9624 56.9982 68.9117 58.6801 66.5338C60.3624 64.1551 46.1365 50.9334 46.1365 50.9334L43.0039 60.9624Z" fill="#F89A0F"/>
        <path d="M39.0433 22.227C39.0433 26.5366 42.5374 30.0308 46.8474 30.0308C51.1576 30.0308 54.6519 26.5366 54.6519 22.227C54.6519 17.9158 51.1576 14.4217 46.8474 14.4217C42.5374 14.4217 39.0433 17.9158 39.0433 22.227Z" fill="white"/>
        <path d="M46.3064 21.9885C46.3064 23.4101 47.4591 24.5625 48.8809 24.5625C50.3027 24.5625 51.4551 23.4101 51.4551 21.9885C51.4551 20.567 50.3027 19.4138 48.8809 19.4138C47.4591 19.4138 46.3064 20.567 46.3064 21.9885Z" fill="#A15D37"/>
        <path d="M-21.0968 71.3762C-21.0968 97.0602 -5.27201 103.39 14.2486 103.39C33.7695 103.39 49.5942 97.0602 49.5942 71.3762C49.5942 45.6926 33.7695 10.3804 14.2486 10.3804C-5.27201 10.3804 -21.0968 45.6926 -21.0968 71.3762Z" fill="#F89A0F"/>
        <path d="M14.2486 97.1239C32.9858 97.1239 48.3087 91.2808 49.5094 68.1003C49.5638 69.2064 49.5942 70.3003 49.5942 71.3762C49.5942 97.0602 33.7695 103.39 14.2486 103.39C-5.27201 103.39 -21.0968 97.0602 -21.0968 71.3762C-21.0968 70.3003 -21.0661 69.2064 -21.0118 68.1003C-19.8114 91.2808 -4.48802 97.1239 14.2486 97.1239Z" fill="#F57815"/>
        <path d="M7.72436 60.5342C7.72436 74.7351 15.0977 86.248 24.1929 86.248C33.2881 86.248 40.6611 74.7351 40.6611 60.5342C40.6611 46.3333 33.2881 34.8213 24.1929 34.8213C15.0977 34.8213 7.72436 46.3333 7.72436 60.5342Z" fill="#FAE83C"/>
        <path d="M-2.32101 28.4707C-2.32101 42.186 9.30042 53.3052 23.6362 53.3052C37.9724 53.3052 49.5942 42.186 49.5942 28.4707C49.5942 14.7547 37.9724 3.63629 23.6362 3.63629C9.30042 3.63629 -2.32101 14.7547 -2.32101 28.4707Z" fill="#F89A0F"/>
        <path d="M51.6699 31.8137C48.5459 47.0882 37.9431 54.8794 25.338 54.8794C12.7327 54.8794 2.1302 47.0882 -0.993979 31.8137H51.6699Z" fill="#F57815"/>
        <path d="M6.44466 22.227C6.44466 26.5366 9.93872 30.0308 14.2487 30.0308C18.5588 30.0308 22.0527 26.5366 22.0527 22.227C22.0527 17.9158 18.5588 14.4217 14.2487 14.4217C9.93872 14.4217 6.44466 17.9158 6.44466 22.227Z" fill="white"/>
        <path d="M9.77316 21.9885C9.77316 23.4101 10.9259 24.5625 12.3477 24.5625C13.7695 24.5625 14.9219 23.4101 14.9219 21.9885C14.9219 20.567 13.7695 19.4138 12.3477 19.4138C10.9259 19.4138 9.77316 20.567 9.77316 21.9885Z" fill="#A15D37"/>
        <path d="M28.5225 31.8137C28.5225 31.8137 27.6071 25.7991 26.4303 25.7991C25.253 25.7991 24.1932 31.8137 24.1932 31.8137H28.5225Z" fill="white"/>
        <path d="M46.3066 31.8137C46.3066 31.8137 45.3913 25.7991 44.2142 25.7991C43.0375 25.7991 41.9773 31.8137 41.9773 31.8137H46.3066Z" fill="white"/>
        <path d="M-0.815872 60.9624C-0.815872 60.9624 13.1784 68.9117 14.8603 66.5338C16.5425 64.1551 2.31697 50.9334 2.31697 50.9334L-0.815872 60.9624Z" fill="#F89A0F"/>
    </g>
    <g clip-path="url(#clip1)">
        <path d="M123.324 7.17408C123.324 7.17408 124.575 0.226447 126.629 -0.130948C128.684 -0.488344 130.381 10.3198 130.381 10.3198L123.324 7.17408Z" fill="#F686C1"/>
        <path d="M158.858 70.2589C158.858 96.8226 142.491 103.369 122.302 103.369C102.112 103.369 85.7456 96.8226 85.7456 70.2589C85.7456 43.6953 102.112 7.17416 122.302 7.17416C142.491 7.17416 158.858 43.6953 158.858 70.2589Z" fill="#B243A8"/>
        <path d="M122.302 94.04C103.304 94.04 87.6946 88.237 85.9174 65.4207C85.805 67.0619 85.7456 68.6787 85.7456 70.2589C85.7456 96.8226 102.112 103.369 122.302 103.369C142.491 103.369 158.857 96.8226 158.857 70.2589C158.857 68.6787 158.798 67.0619 158.684 65.4207C156.908 88.237 141.3 94.04 122.302 94.04Z" fill="#A437A1"/>
        <path d="M95.4708 93.018C95.4708 93.018 94.2024 107.199 95.7785 109.299C97.3538 111.4 114.685 99.0579 114.685 99.0579L95.4708 93.018Z" fill="#A437A1"/>
        <path d="M149.132 93.018C149.132 93.018 150.4 107.199 148.824 109.299C147.248 111.4 129.916 99.0579 129.916 99.0579L149.132 93.018Z" fill="#A437A1"/>
        <path d="M112.93 24.7651C112.93 26.5781 112.126 28.0476 111.133 28.0476C110.139 28.0476 109.335 26.5781 109.335 24.7651C109.335 22.9521 110.139 21.4826 111.133 21.4826C112.126 21.4826 112.93 22.9521 112.93 24.7651Z" fill="#48296D"/>
        <path d="M131.714 24.7651C131.714 26.5781 130.909 28.0476 129.916 28.0476C128.925 28.0476 128.119 26.5781 128.119 24.7651C128.119 22.9521 128.925 21.4826 129.916 21.4826C130.909 21.4826 131.714 22.9521 131.714 24.7651Z" fill="#48296D"/>
        <path d="M133.135 33.3654C133.135 36.4216 127.588 41.9429 120.744 41.9429C113.901 41.9429 108.353 36.4216 108.353 33.3654C108.353 30.3084 113.901 30.8742 120.744 30.8742C127.588 30.8742 133.135 30.3084 133.135 33.3654Z" fill="#48296D"/>
        <path d="M118.054 17.019C118.054 17.019 109.836 3.88823 112.159 2.36991C114.481 0.851587 122.302 8.2657 122.302 8.2657C122.302 8.2657 123.592 13.0885 118.054 17.019Z" fill="#F686C1"/>
        <path d="M137.809 69.284C137.809 81.2425 130.168 89.0344 120.744 89.0344C111.32 89.0344 103.68 81.2425 103.68 69.284C103.68 57.3255 111.32 47.6319 120.744 47.6319C130.168 47.6319 137.809 57.3255 137.809 69.284Z" fill="#F686C1"/>
        <path d="M89.8308 48.3348C89.8308 48.3348 77.3732 60.063 79.3645 61.9135C81.355 63.7639 97.7814 56.2977 97.7814 56.2977L89.8308 48.3348Z" fill="#B243A8"/>
        <path d="M154.772 48.3348C154.772 48.3348 167.229 60.063 165.238 61.9135C163.248 63.7639 146.821 56.2977 146.821 56.2977L154.772 48.3348Z" fill="#B243A8"/>
        <path d="M117.089 33.2296C117.089 34.7634 116.157 37.2041 115.009 37.2041C113.862 37.2041 112.93 34.7634 112.93 33.2296C112.93 31.6958 113.862 31.6494 115.009 31.6494C116.157 31.6494 117.089 31.6958 117.089 33.2296Z" fill="white"/>
        <path d="M128.812 33.2296C128.812 34.7634 127.881 37.2041 126.733 37.2041C125.585 37.2041 124.655 34.7634 124.655 33.2296C124.655 31.6958 125.585 31.6494 126.733 31.6494C127.881 31.6494 128.812 31.6958 128.812 33.2296Z" fill="white"/>
    </g>
    <path d="M171.377 77.1067C171.377 77.1067 167.969 78.9042 169.314 80.3544C170.661 81.8038 172.939 77.5579 172.939 77.5579L171.377 77.1067Z" fill="#924422"/>
    <path d="M175.524 80.2466C175.524 80.2466 172.919 83.0856 174.674 83.9981C176.429 84.9097 177.147 80.1461 177.147 80.1461L175.524 80.2466Z" fill="#924422"/>
    <path d="M180.154 81.6337C180.154 81.6337 177.924 84.7759 179.78 85.4615C181.636 86.1471 181.751 81.3303 181.751 81.3303L180.154 81.6337Z" fill="#924422"/>
    <path d="M185.588 37.8211C185.588 37.8211 168.636 69.998 170.815 75.9127C172.995 81.8281 181.371 83.0739 185.588 81.5165C189.806 79.9599 185.588 37.8211 185.588 37.8211Z" fill="#F25A46"/>
    <path d="M260.491 77.1067C260.491 77.1067 263.899 78.9042 262.552 80.3544C261.206 81.8038 258.928 77.5579 258.928 77.5579L260.491 77.1067Z" fill="#924422"/>
    <path d="M256.344 80.2466C256.344 80.2466 258.948 83.0856 257.194 83.9981C255.438 84.9097 254.721 80.1461 254.721 80.1461L256.344 80.2466Z" fill="#924422"/>
    <path d="M251.713 81.6337C251.713 81.6337 253.943 84.7759 252.087 85.4615C250.231 86.1471 250.116 81.3303 250.116 81.3303L251.713 81.6337Z" fill="#924422"/>
    <path d="M246.279 37.8211C246.279 37.8211 263.231 69.998 261.052 75.9127C258.873 81.8281 250.497 83.0739 246.279 81.5165C242.062 79.9599 246.279 37.8211 246.279 37.8211Z" fill="#F25A46"/>
    <path d="M238.453 109.537L229.031 103.744H202.258L193.216 109.434C190.373 111.224 186.624 109.692 185.821 106.43C181.421 88.5598 183.239 50.5363 186.924 28.4376C189.273 14.3478 201.515 4.04521 215.799 4.04521C229.828 4.04521 241.936 13.9888 244.554 27.7711C248.695 49.5756 250.579 87.6506 245.8 106.511C244.98 109.743 241.293 111.283 238.453 109.537Z" fill="#F6825A"/>
    <path d="M245.8 95.4692C244.98 98.702 186.624 98.6505 185.821 95.3886C184.284 89.149 183.508 80.4486 183.303 70.8308C183.034 84.6771 183.713 97.8676 185.821 106.43C186.624 109.692 190.374 111.224 193.216 109.434L202.258 103.744H229.031L238.453 109.537C241.293 111.283 244.98 109.743 245.8 106.511C248.096 97.4471 248.852 83.9432 248.559 69.9424C248.337 79.8004 247.483 88.8282 245.8 95.4692Z" fill="#F25A46"/>
    <path d="M219.255 46.1143H213.633C209.01 46.1143 205.1 42.6936 204.486 38.1103L203.695 32.204C203.361 29.7208 205.294 27.5127 207.799 27.5127H225.089C227.596 27.5127 229.528 29.7208 229.194 32.204L228.403 38.1103C227.789 42.6936 223.879 46.1143 219.255 46.1143Z" fill="#924422"/>
    <path d="M208.693 27.5125C208.693 27.5125 207.831 30.8068 208.447 31.1359C209.063 31.4642 210.831 27.5125 210.831 27.5125H208.693Z" fill="white"/>
    <path d="M224.195 27.5125C224.195 27.5125 225.058 30.8068 224.441 31.1359C223.825 31.4642 222.057 27.5125 222.057 27.5125H224.195Z" fill="white"/>
    <path d="M216.445 43.9902C221.685 43.9902 223.878 38.1795 220.585 37.4132C219.268 37.1066 218.342 37.3509 217.705 37.7531C216.707 38.3839 215.468 38.5368 214.423 37.9858C213.563 37.5312 212.698 37.3551 212.085 37.5578C208.225 38.8368 210.17 43.9902 216.445 43.9902Z" fill="#F6825A"/>
    <path d="M203.088 22.0034C203.088 23.8542 202.267 25.3542 201.253 25.3542C200.24 25.3542 199.418 23.8542 199.418 22.0034C199.418 20.1527 200.24 18.6518 201.253 18.6518C202.267 18.6518 203.088 20.1527 203.088 22.0034Z" fill="#924422"/>
    <path d="M232.49 22.0034C232.49 23.8542 231.668 25.3542 230.654 25.3542C229.641 25.3542 228.819 23.8542 228.819 22.0034C228.819 20.1527 229.641 18.6518 230.654 18.6518C231.668 18.6518 232.49 20.1527 232.49 22.0034Z" fill="#924422"/>
    <g clip-path="url(#clip2)">
        <path d="M304.333 102.128C303.777 102.075 302.801 102.101 301.571 102.179C303.004 101.298 303.956 100.389 303.777 99.9116C303.475 99.1103 299.374 101.201 296.847 102.582C296.621 102.605 296.396 102.626 296.167 102.65C301.303 99.6256 304.386 93.7094 304.386 82.2308C304.386 75.6496 303.373 67.8635 301.541 59.8818C303.007 61.21 304.267 61.984 304.386 60.8638C304.543 59.39 302.788 56.9358 301.094 54.9386C302.532 55.8024 303.743 55.9114 303.743 55.2015C303.743 54.3635 301.299 52.8655 299.434 51.8444C293.884 33.0149 284.157 14.9769 272.77 10.9016C275.515 9.37698 279.154 7.07092 278.166 6.04065C277.121 4.95129 272.841 7.64181 270.179 9.49597C271.962 7.011 274.01 3.75375 272.815 3.36178C271.656 2.9823 269.763 6.18379 268.404 8.87348C268.789 5.95327 268.852 1.15227 265.129 1.00331C260.752 0.828546 264.619 7.65846 266.184 10.1692C256.56 11.4866 247.92 23.1009 241.683 37.5862C239.486 38.0722 234.99 39.328 235.458 41.3936C235.758 42.7243 237.528 42.0435 239.262 41.0016C236.708 43.8877 232.433 49.1015 232.998 51.0788C233.386 52.4344 235.275 51.44 237.131 49.9894C233.639 61.245 231.618 72.9391 231.618 82.2308C231.618 82.4545 231.628 82.6593 231.63 82.8797L231.625 82.8722C231.625 82.8722 225.596 88.2607 226.675 90.7258C227.157 91.8278 228.461 90.6511 229.755 89.0133C228.351 92.1405 227.297 95.4278 228.678 96.1186C230.252 96.9059 231.415 92.977 232.126 89.4316C233.099 95.7259 235.449 99.6278 238.844 102.015C236.369 100.706 233.231 99.2143 232.969 99.9116C232.79 100.389 233.741 101.298 235.174 102.179C233.944 102.101 232.969 102.075 232.413 102.128C229.177 102.436 229.793 105.625 229.793 105.625L254.407 105.693C256.215 105.736 258.094 105.731 260.031 105.708L266.772 105.727C266.772 105.727 266.576 105.692 266.236 105.632C266.821 105.627 267.41 105.625 268.002 105.625C268.832 105.625 269.654 105.631 270.47 105.638C270.153 105.695 269.973 105.727 269.973 105.727L276.126 105.71C277.969 105.731 279.759 105.735 281.485 105.695L306.952 105.625C306.952 105.625 307.567 102.436 304.333 102.128Z" fill="#EDB014"/>
        <path d="M250.026 48.2877C249.888 48.2877 249.748 48.2535 249.619 48.1811C249.218 47.9564 249.076 47.4488 249.301 47.0477C250.536 44.8515 252.808 43.5399 255.38 43.5399C255.381 43.5399 255.381 43.5399 255.381 43.5399C257.952 43.5407 260.223 44.8523 261.456 47.0485C261.681 47.4496 261.538 47.9564 261.137 48.1811C260.738 48.4058 260.23 48.2644 260.004 47.8632C259.071 46.1996 257.342 45.2052 255.381 45.2043C255.381 45.2043 255.38 45.2043 255.38 45.2043C253.417 45.2043 251.688 46.1988 250.753 47.8641C250.6 48.1354 250.317 48.2877 250.026 48.2877Z" fill="#886202"/>
        <path d="M272.813 48.2877C272.675 48.2877 272.535 48.2535 272.405 48.1811C272.005 47.9564 271.863 47.4488 272.088 47.0477C273.322 44.8515 275.594 43.5399 278.166 43.5399C278.167 43.5399 278.168 43.5399 278.169 43.5399C280.74 43.5416 283.011 44.8523 284.242 47.0485C284.468 47.4496 284.325 47.9564 283.924 48.1811C283.526 48.4058 283.016 48.2644 282.791 47.8632C281.857 46.1996 280.13 45.2052 278.168 45.2043C278.168 45.2043 278.167 45.2043 278.166 45.2043C276.204 45.2043 274.475 46.1988 273.539 47.8641C273.386 48.1354 273.103 48.2877 272.813 48.2877Z" fill="#886202"/>
        <path d="M279.44 54.7431C279.44 57.868 273.768 63.5112 266.773 63.5112C259.777 63.5112 254.105 57.868 254.105 54.7431C254.105 51.619 266.773 52.1974 266.773 52.1974C266.773 52.1974 279.44 51.619 279.44 54.7431Z" fill="#886202"/>
        <path d="M304.333 102.128C303.777 102.075 302.801 102.101 301.571 102.179C303.004 101.298 303.956 100.389 303.777 99.9116C303.475 99.1103 299.374 101.201 296.848 102.582C296.621 102.605 296.396 102.626 296.167 102.65C301.303 99.6256 304.386 93.7094 304.386 82.2308C304.386 75.7695 303.404 68.1431 301.635 60.3129C299.914 79.2141 292.108 95.8075 266.773 95.8075C244.731 95.8075 236.076 82.7532 233.108 66.6126C232.14 72.1894 231.618 77.5188 231.618 82.2308C231.618 82.4545 231.628 82.6593 231.63 82.8797L231.625 82.8722C231.625 82.8722 225.596 88.2607 226.675 90.7258C227.157 91.8278 228.461 90.6511 229.755 89.0133C228.351 92.1405 227.297 95.4278 228.678 96.1186C230.252 96.9059 231.415 92.977 232.126 89.4316C233.099 95.7259 235.449 99.6278 238.844 102.015C236.369 100.706 233.231 99.2143 232.969 99.9116C232.79 100.389 233.741 101.298 235.174 102.179C233.944 102.101 232.969 102.075 232.413 102.128C229.177 102.436 229.793 105.625 229.793 105.625L254.407 105.693C256.215 105.736 258.094 105.731 260.031 105.708L266.772 105.727C266.772 105.727 266.576 105.692 266.236 105.632C266.821 105.627 267.41 105.625 268.002 105.625C268.832 105.625 269.654 105.631 270.47 105.638C270.153 105.695 269.973 105.727 269.973 105.727L276.126 105.71C277.97 105.731 279.759 105.735 281.485 105.695L306.952 105.625C306.952 105.625 307.567 102.436 304.333 102.128Z" fill="#DEA513"/>
    </g>
    <g clip-path="url(#clip3)">
        <path d="M94.2906 73.2075L94.293 73.2067C94.2849 73.1945 94.2768 73.1815 94.2687 73.1694C93.5783 71.921 92.8107 70.7221 91.9749 69.5752C78.175 47.1681 80.0066 33.4088 84.6891 33.8767C89.6202 34.3697 88.6342 43.7388 88.6342 43.7388C80.9391 41.2185 82.0843 53.5904 90.6713 52.0537C97.2958 50.8686 95.5016 30.9006 82.7162 30.9185C61.4907 30.9478 31.2984 61.301 30.5223 87.3819L30.5278 87.381C30.4805 88.1145 30.4478 88.852 30.4478 89.5976C30.4478 108.388 45.681 123.621 64.4719 123.621C83.2629 123.621 98.4955 108.388 98.4955 89.5976C98.4955 83.6545 96.9685 78.0696 94.2906 73.2075Z" fill="#60CCF5"/>
        <path d="M64.4719 113.745C47.3587 113.745 33.2015 101.109 30.8091 84.6584C30.5744 86.2715 30.4478 87.9195 30.4478 89.5976C30.4478 108.388 45.681 123.621 64.4719 123.621C83.2629 123.621 98.4955 108.388 98.4955 89.5976C98.4955 87.9195 98.3688 86.2715 98.1349 84.6584C95.742 101.109 81.5848 113.745 64.4719 113.745Z" fill="#5EB9E9"/>
        <path d="M53.0249 74.4945C53.0249 76.7062 52.252 78.4988 51.2986 78.4988C50.3452 78.4988 49.5723 76.7062 49.5723 74.4945C49.5723 72.2819 50.3452 70.4893 51.2986 70.4893C52.252 70.4893 53.0249 72.2819 53.0249 74.4945Z" fill="#3E658F"/>
        <path d="M79.5412 74.4945C79.5412 76.7062 78.7679 78.4988 77.8144 78.4988C76.8608 78.4988 76.0884 76.7062 76.0884 74.4945C76.0884 72.2819 76.8608 70.4893 77.8144 70.4893C78.7679 70.4893 79.5412 72.2819 79.5412 74.4945Z" fill="#3E658F"/>
        <path d="M56.6832 79.7209C55.5267 79.7209 54.8884 81.0351 55.5746 81.9659C57.5044 84.5813 60.6051 86.2781 64.1047 86.2781C67.6039 86.2781 70.705 84.5813 72.6342 81.9659C73.3213 81.0351 72.6821 79.7209 71.5263 79.7209H56.6832Z" fill="white"/>
    </g>
    <path d="M144.944 92.5466C144.944 92.5466 139.211 104.697 141.091 105.613C142.972 106.528 151.77 96.9147 151.77 96.9147L144.944 92.5466Z" fill="#6858B1"/>
    <path d="M185.089 92.5466C185.089 92.5466 190.789 104.697 188.909 105.613C187.028 106.528 178.229 96.9147 178.229 96.9147L185.089 92.5466Z" fill="#6858B1"/>
    <path d="M160.372 58.6689C160.372 58.6689 149.279 50.1886 157.776 48.1612C166.273 46.1332 162.394 58.6689 162.394 58.6689H160.372Z" fill="#F89A0F"/>
    <path d="M165 58.6689C165 58.6689 165.427 48.5296 168.99 49.267C172.553 50.0044 166.43 58.6689 166.43 58.6689H165Z" fill="#F89A0F"/>
    <path d="M168.99 58.7543C168.99 58.7543 169.597 53.8536 173.106 54.6097C176.616 55.3665 170.104 59.9751 170.104 59.9751L168.99 58.7543Z" fill="#F89A0F"/>
    <path d="M196.579 81.4637C196.579 94.835 182.441 105.674 165 105.674C147.559 105.674 133.421 94.835 133.421 81.4637C133.421 68.0929 147.559 57.2537 165 57.2537C182.441 57.2537 196.579 68.0929 196.579 81.4637Z" fill="#7D72C0"/>
    <path d="M165 100.618C148.673 100.618 135.243 91.1183 133.593 78.9355C133.48 79.7666 133.421 80.6099 133.421 81.4637C133.421 94.835 147.56 105.674 165 105.674C182.441 105.674 196.579 94.835 196.579 81.4637C196.579 80.6099 196.519 79.7666 196.407 78.9355C194.758 91.1183 181.326 100.618 165 100.618Z" fill="#6858B1"/>
    <path d="M139.272 81.4631C139.272 83.2843 139.987 84.7617 140.868 84.7617C141.749 84.7617 142.463 83.2843 142.463 81.4631C142.463 79.6419 141.749 78.1659 140.868 78.1659C139.987 78.1659 139.272 79.6419 139.272 81.4631Z" fill="#3C348F"/>
    <path d="M190.727 81.4631C190.727 83.2843 190.013 84.7617 189.133 84.7617C188.251 84.7617 187.537 83.2843 187.537 81.4631C187.537 79.6419 188.251 78.1659 189.133 78.1659C190.013 78.1659 190.727 79.6419 190.727 81.4631Z" fill="#3C348F"/>
    <path d="M153.472 81.4629C153.472 81.4629 152.948 76.7542 153.995 76.8414C155.042 76.928 156.787 77.0152 157.049 77.7119C157.31 78.4086 156.351 81.4629 156.351 81.4629H153.472Z" fill="white"/>
    <path d="M179.876 81.7859H150.059V81.1396H179.876V81.7859Z" fill="#3C348F"/>
    <defs>
        <clipPath id="clip0">
            <rect width="93.2727" height="108" fill="white" transform="matrix(-1 0 0 1 70.2729 2)"/>
        </clipPath>
        <clipPath id="clip1">
            <rect width="94.603" height="109.54" fill="white" transform="translate(75)"/>
        </clipPath>
        <clipPath id="clip2">
            <rect width="93.2727" height="108" fill="white" transform="translate(220 1)"/>
        </clipPath>
        <clipPath id="clip3">
            <rect width="94.603" height="109.54" fill="white" transform="translate(18 31)"/>
        </clipPath>
    </defs>
</svg>