<svg width="27" height="28" viewBox="0 0 27 28" fill="none" xmlns="http://www.w3.org/2000/svg">
<path fill-rule="evenodd" clip-rule="evenodd" d="M25.0004 14C25.0004 20.6274 19.6278 26 13.0004 26C8.5587 26 4.68064 23.5868 2.60578 20H0.347656C2.59458 24.7299 7.4156 28 13.0004 28C20.7324 28 27.0004 21.732 27.0004 14C27.0004 6.26801 20.7324 0 13.0004 0C7.4156 0 2.59458 3.27011 0.347656 8H2.60578C4.68064 4.41319 8.5587 2 13.0004 2C19.6278 2 25.0004 7.37258 25.0004 14Z" fill="black"/>
<path d="M0 14L15 14" stroke="black" stroke-width="2"/>
<path d="M12 9L16 14L12 19" stroke="black" stroke-width="2"/>
</svg>
