<svg width="168" height="168" viewBox="0 0 168 168" fill="none" xmlns="http://www.w3.org/2000/svg">
    <g filter="url(#filter0_d)">
        <mask id="mask0" mask-type="alpha" maskUnits="userSpaceOnUse" x="24" y="20" width="120" height="120">
            <circle cx="84" cy="80" r="60" fill="#111111"/>
        </mask>
        <g mask="url(#mask0)">
            <circle cx="84" cy="80" r="60" fill="url(#paint0_linear)"/>
            <g clip-path="url(#clip0)">
                <path d="M85.2327 44.6453C85.2327 44.6453 86.7395 36.2732 89.2147 35.8425C91.6908 35.4118 93.7362 48.436 93.7362 48.436L85.2327 44.6453Z" fill="#F686C1"/>
                <path d="M128.052 120.665C128.052 152.675 108.329 160.563 84.0006 160.563C59.671 160.563 39.9492 152.675 39.9492 120.665C39.9492 88.6546 59.671 44.6454 84.0006 44.6454C108.329 44.6454 128.052 88.6546 128.052 120.665Z" fill="#B243A8"/>
                <path d="M84.0006 149.322C61.1072 149.322 42.2978 142.329 40.1562 114.834C40.0208 116.812 39.9492 118.761 39.9492 120.665C39.9492 152.675 59.671 160.563 84.0006 160.563C108.329 160.563 128.051 152.675 128.051 120.665C128.051 118.761 127.979 116.812 127.843 114.834C125.702 142.329 106.894 149.322 84.0006 149.322Z" fill="#A437A1"/>
                <path d="M72.708 65.8433C72.708 68.0281 71.7387 69.7988 70.5419 69.7988C69.345 69.7988 68.3757 68.0281 68.3757 65.8433C68.3757 63.6585 69.345 61.8878 70.5419 61.8878C71.7387 61.8878 72.708 63.6585 72.708 65.8433Z" fill="#48296D"/>
                <path d="M95.3422 65.8433C95.3422 68.0281 94.373 69.7988 93.1761 69.7988C91.9812 69.7988 91.01 68.0281 91.01 65.8433C91.01 63.6585 91.9812 61.8878 93.1761 61.8878C94.373 61.8878 95.3422 63.6585 95.3422 65.8433Z" fill="#48296D"/>
                <path d="M97.0551 76.207C97.0551 79.8898 90.3703 86.5432 82.1237 86.5432C73.8772 86.5432 67.1914 79.8898 67.1914 76.207C67.1914 72.5233 73.8772 73.2051 82.1237 73.2051C90.3703 73.2051 97.0551 72.5233 97.0551 76.207Z" fill="#48296D"/>
                <path d="M78.8814 56.5088C78.8814 56.5088 68.9788 40.6857 71.7777 38.8561C74.5756 37.0264 84.0004 45.9607 84.0004 45.9607C84.0004 45.9607 85.5554 51.7724 78.8814 56.5088Z" fill="#F686C1"/>
                <path d="M102.687 119.49C102.687 133.901 93.4802 143.29 82.1238 143.29C70.7673 143.29 61.5603 133.901 61.5603 119.49C61.5603 105.08 70.7673 93.3988 82.1238 93.3988C93.4802 93.3988 102.687 105.08 102.687 119.49Z" fill="#F686C1"/>
                <path d="M44.872 94.2452C44.872 94.2452 29.8602 108.378 32.2598 110.608C34.6584 112.838 54.4528 103.841 54.4528 103.841L44.872 94.2452Z" fill="#B243A8"/>
                <path d="M123.128 94.2452C123.128 94.2452 138.14 108.378 135.74 110.608C133.341 112.838 113.547 103.841 113.547 103.841L123.128 94.2452Z" fill="#B243A8"/>
                <path d="M77.7189 76.0431C77.7189 77.8913 76.5966 80.8325 75.2133 80.8325C73.8301 80.8325 72.7078 77.8913 72.7078 76.0431C72.7078 74.1948 73.8301 74.1389 75.2133 74.1389C76.5966 74.1389 77.7189 74.1948 77.7189 76.0431Z" fill="white"/>
                <path d="M91.8458 76.0431C91.8458 77.8913 90.7236 80.8325 89.3403 80.8325C87.957 80.8325 86.8357 77.8913 86.8357 76.0431C86.8357 74.1948 87.957 74.1389 89.3403 74.1389C90.7236 74.1389 91.8458 74.1948 91.8458 76.0431Z" fill="white"/>
            </g>
        </g>
    </g>
    <defs>
        <filter id="filter0_d" x="0" y="0" width="168" height="168" filterUnits="userSpaceOnUse" color-interpolation-filters="sRGB">
            <feFlood flood-opacity="0" result="BackgroundImageFix"/>
            <feColorMatrix in="SourceAlpha" type="matrix" values="0 0 0 0 0 0 0 0 0 0 0 0 0 0 0 0 0 0 127 0"/>
            <feOffset dy="4"/>
            <feGaussianBlur stdDeviation="12"/>
            <feColorMatrix type="matrix" values="0 0 0 0 0.0774305 0 0 0 0 0.622542 0 0 0 0 0.929167 0 0 0 0.4 0"/>
            <feBlend mode="normal" in2="BackgroundImageFix" result="effect1_dropShadow"/>
            <feBlend mode="normal" in="SourceGraphic" in2="effect1_dropShadow" result="shape"/>
        </filter>
        <linearGradient id="paint0_linear" x1="84" y1="20" x2="84" y2="140" gradientUnits="userSpaceOnUse">
            <stop stop-color="#18CE56"/>
            <stop offset="1" stop-color="#149FED"/>
        </linearGradient>
        <clipPath id="clip0">
            <path d="M27 36H141V168H27V36Z" fill="white"/>
        </clipPath>
    </defs>
</svg>
