<svg width="170" height="170" viewBox="0 0 170 170" fill="none" xmlns="http://www.w3.org/2000/svg">
<path d="M170 85C170 131.944 131.944 170 85 170C38.0558 170 0 131.944 0 85C0 38.0558 38.0558 0 85 0C131.944 0 170 38.0558 170 85Z" fill="#F1CD5B"/>
<rect x="33" y="33" width="104.615" height="104.615" rx="10" fill="white"/>
<path d="M66.3984 68H62.8828L56.0391 56.7734V68H52.5234V50.9375H56.0391L62.8945 62.1875V50.9375H66.3984V68Z" fill="#F1CD5B"/>
<path d="M89.7891 86.6055H83.0391V91.1758H90.9609V94H79.5234V76.9375H90.9375V79.7852H83.0391V83.8516H89.7891V86.6055Z" fill="#F1CD5B"/>
<path d="M115.812 115.078L118.109 102.938H121.613L117.828 120H114.289L111.512 108.586L108.734 120H105.195L101.41 102.938H104.914L107.223 115.055L110.035 102.938H113.012L115.812 115.078Z" fill="#F1CD5B"/>
</svg>
