<?xml version="1.0"?>
<svg xmlns="http://www.w3.org/2000/svg" id="Outline" viewBox="0 0 512 512" width="512px" height="512px"><g><circle cx="224" cy="216" r="8" data-original="#000000" class="active-path" data-old_color="#000000" fill="#23A5F0"/><circle cx="144" cy="216" r="8" data-original="#000000" class="active-path" data-old_color="#000000" fill="#23A5F0"/><path d="M176,240h16a8,8,0,0,0,0-16h-8v-8a8,8,0,0,0-16,0v16A8,8,0,0,0,176,240Z" data-original="#000000" class="active-path" data-old_color="#000000" fill="#23A5F0"/><path d="M227.077,240.615a8,8,0,0,0-10.462,4.308C216.536,245.114,208.385,264,184,264c-23.956,0-32.248-18.238-32.636-19.126a8,8,0,0,0-14.749,6.2C137.107,252.258,149.068,280,184,280s46.893-27.742,47.385-28.923A8,8,0,0,0,227.077,240.615Z" data-original="#000000" class="active-path" data-old_color="#000000" fill="#23A5F0"/><path d="M152,464h64a8,8,0,0,0,0-16H152a8,8,0,0,0,0,16Z" data-original="#000000" class="active-path" data-old_color="#000000" fill="#23A5F0"/><path d="M490.4,304.366A55.947,55.947,0,0,0,458.667,227.2,8,8,0,0,0,448,234.742v33.944l-8,8-8-8V234.742a8,8,0,0,0-10.667-7.542,55.946,55.946,0,0,0-31.9,76.8H361.444l-1.552-9.315A8,8,0,0,0,352,288H336a8,8,0,0,0-7.892,6.685L326.556,304H241.631a112.769,112.769,0,0,0,43.548-48H288a39.978,39.978,0,0,0,31.977-64H320a8,8,0,0,0,8-8v-3.561a40.169,40.169,0,0,0-24-36.792V125.82A77.908,77.908,0,0,0,226.18,48H216a32,32,0,0,0-64,0H141.82A77.908,77.908,0,0,0,64,125.82v17.828a40.166,40.166,0,0,0-24,36.791V184a8,8,0,0,0,8.024,8A39.978,39.978,0,0,0,80,256h2.821a112.769,112.769,0,0,0,43.548,48H56a40.045,40.045,0,0,0-40,40V488a8,8,0,0,0,8,8H488a8,8,0,0,0,8-8V312A8,8,0,0,0,490.4,304.366ZM480,400H464V352h16Zm-.839-80H480v16H464v-5.4A55.807,55.807,0,0,0,479.161,320ZM416,248v24a8,8,0,0,0,2.343,5.657l16,16a8,8,0,0,0,11.314,0l16-16A8,8,0,0,0,464,272V248a40,40,0,0,1-10.667,69.711A8,8,0,0,0,448,325.258V400H432V325.258a8,8,0,0,0-5.333-7.543A40,40,0,0,1,416,248ZM304,400V352h16v48Zm-48,16H112V320h16v72a8,8,0,0,0,11.578,7.155L184,376.944l44.422,22.211A8,8,0,0,0,240,392V320h16v96ZM80,416V320H96v96Zm176,16v48H80V432ZM214.606,320,184,355.707,153.394,320ZM224,333.626v45.43l-27.258-13.629Zm-52.742,31.8L144,379.056v-45.43ZM272,352h16v48H272Zm64,0h16v48H336Zm32,0h48v48H368Zm32-32v-.829A55.85,55.85,0,0,0,416,330.6V336H366.777l-2.666-16Zm-54.777-16,5.333,32H337.444l5.333-32ZM272,320h51.889l-2.666,16H272Zm19.408-80.246A111.652,111.652,0,0,0,296,208V193.376a24,24,0,0,1-4.592,46.378ZM184,32a16.019,16.019,0,0,1,16,16H168A16.019,16.019,0,0,1,184,32ZM141.82,64h84.36A61.89,61.89,0,0,1,288,125.82v14.194l-99.323-11.739a40.1,40.1,0,0,0-9.355,0L80,140.015V125.82A61.89,61.89,0,0,1,141.82,64ZM77.2,156.457l104-12.292a23.84,23.84,0,0,1,5.6,0l104,12.292a24.063,24.063,0,0,1,20.568,18.467l-122.69-14.5a39.845,39.845,0,0,0-9.357,0l-122.691,14.5A24.062,24.062,0,0,1,77.2,156.457ZM56,216a24.039,24.039,0,0,1,16-22.624V208a111.652,111.652,0,0,0,4.592,31.754A24.035,24.035,0,0,1,56,216Zm32-8V187.328l93.2-11.015a23.769,23.769,0,0,1,5.6,0L280,187.328V208a96,96,0,0,1-192,0ZM32,344a24.027,24.027,0,0,1,24-24h8V480H32ZM480,480H272V416H480Z" data-original="#000000" class="active-path" data-old_color="#000000" fill="#23A5F0"/></g> </svg>
