<?xml version="1.0"?>
<svg xmlns="http://www.w3.org/2000/svg" height="512px" viewBox="-45 1 511 511.99898" width="512px"><g><path d="m420.589844 210.054688c0-115.824219-94.226563-210.054688-210.042969-210.054688-54.382813 0-105.949219 20.695312-145.210937 58.277344-3.042969 2.910156-3.148438 7.738281-.238282 10.777344 2.914063 3.042968 7.738282 3.148437 10.78125.238281 25.984375-24.875 57.789063-41.765625 92.203125-49.402344-10.96875 10.890625-17.773437 25.972656-17.773437 42.617187v35.726563c0 33.132813 26.957031 60.089844 60.089844 60.089844 3.835937 0 7.675781-.367188 11.40625-1.082031 28.210937-5.425782 48.683593-30.242188 48.683593-59.007813v-35.726563c0-16.046874-6.25-31.140624-17.597656-42.492187-.054687-.054687-.105469-.101563-.160156-.152344 87.199219 19.328125 152.609375 97.257813 152.609375 190.191407 0 27.761718-5.855469 54.929687-17.09375 79.898437-1.480469-13.542969-7.457032-26.089844-17.230469-35.863281-8.535156-8.539063-19.285156-14.25-31.082031-16.519532-3.730469-.71875-7.570313-1.082031-11.40625-1.082031-33.136719 0-60.089844 26.957031-60.089844 60.09375v35.726563c0 22.042968 11.9375 41.339844 29.679688 51.796875-16.414063 8.289062-33.8125 14.140625-51.953126 17.484375-.589843-10.019532-.613281-16.675782-.613281-16.824219-.003906-4.207031-3.417969-7.613281-7.621093-7.613281-.003907 0-.007813 0-.011719 0-4.207031.003906-7.617188 3.421875-7.613281 7.628906 0 1.402344.105468 34.722656 6.734374 66.6875.746094 3.601562 3.917969 6.078125 7.457032 6.078125.511718 0 1.035156-.050781 1.554687-.160156 4.125-.855469 6.773438-4.890625 5.917969-9.011719-2.21875-10.707031-3.667969-21.714844-4.621094-31.507812 24.582032-4.335938 47.902344-12.9375 69.472656-25.625 3.789063.753906 7.699219 1.15625 11.703126 1.15625 3.839843 0 7.679687-.367188 11.40625-1.082032 28.210937-5.425781 48.6875-30.242187 48.6875-59.007812v-10.828125c20.921874-33.359375 31.972656-71.832031 31.972656-111.425781zm-201.667969-67.785157c-2.78125.535157-5.652344.808594-8.523437.808594-24.726563 0-44.839844-20.117187-44.839844-44.84375v-22.777344c8.144531-3.636719 17.066406-9.746093 22.410156-17.195312 2.464844 1.90625 5.496094 3.941406 9.179688 5.945312 15.007812 8.171875 34.53125 12.703125 58.09375 13.523438v20.503906c0 21.46875-15.273438 39.988281-36.320313 44.035156zm36.320313-79.804687c-48.558594-1.867188-62.785157-20.613282-63.589844-21.742188-1.714844-2.972656-5.144532-4.316406-8.472656-3.441406-3.347657.878906-5.613282 4.023438-5.613282 7.488281 0 3.625-5.152344 9.070313-11.789062 13.304688 2.234375-22.65625 21.390625-40.414063 44.621094-40.414063 2.875 0 5.742187.273438 8.527343.808594 8.792969 1.691406 16.8125 5.953125 23.183594 12.324219 8.460937 8.464843 13.125 19.714843 13.132813 31.671875zm73.285156 189.269531c2.871094 0 5.738281.273437 8.527344.808594 8.792968 1.691406 16.808593 5.953125 23.183593 12.328125 8.460938 8.464844 13.121094 19.710937 13.132813 31.671875-48.558594-1.871094-62.785156-20.617188-63.589844-21.746094-1.714844-2.972656-5.144531-4.316406-8.472656-3.441406-3.347656.882812-5.613282 4.027343-5.613282 7.488281 0 3.625-5.152343 9.074219-11.785156 13.304688 2.230469-22.65625 21.386719-40.414063 44.617188-40.414063zm8.523437 124.609375c-2.78125.535156-5.652343.808594-8.523437.808594-24.726563 0-44.839844-20.117188-44.839844-44.84375v-22.777344c8.144531-3.632812 17.066406-9.746094 22.410156-17.195312 2.464844 1.90625 5.496094 3.9375 9.179688 5.945312 15.003906 8.171875 34.53125 12.703125 58.09375 13.523438v20.503906c0 21.46875-15.273438 39.988281-36.320313 44.035156zm0 0" data-original="#000000" class="active-path" data-old_color="#000000" fill="#23A5F0"/><path d="m306.578125 496.753906h-24.789063c-.007812 0-.011718-.003906-.019531-.003906-8.324219 0-15.582031-6.992188-21.570312-20.789062-1.675781-3.863282-6.164063-5.636719-10.027344-3.960938-3.859375 1.675781-5.632813 6.164062-3.957031 10.027344 2.480468 5.726562 5.242187 10.632812 8.273437 14.722656h-88.183593c8.128906-11.015625 14.324218-27.964844 18.519531-50.792969 5.554687-30.234375 5.648437-59.921875 5.652343-61.171875.003907-4.207031-3.40625-7.625-7.617187-7.628906-.003906 0-.007813 0-.007813 0-4.207031 0-7.621093 3.410156-7.625 7.617188 0 .136718-.019531 6.765624-.605468 16.765624-18.066406-3.355468-35.410156-9.207031-51.78125-17.488281 17.851562-10.570312 29.523437-30.027343 29.523437-51.742187v-35.726563c0-16.050781-6.25-31.136719-17.601562-42.492187-8.539063-8.539063-19.289063-14.25-31.082031-16.519532-3.730469-.71875-7.570313-1.082031-11.410157-1.082031-30.71875 0-56.109375 23.175781-59.652343 52.960938-11.085938-24.839844-16.871094-51.828125-16.871094-79.394531 0-43.480469 14.007812-84.609376 40.503906-118.933594 2.574219-3.335938 1.957031-8.121094-1.375-10.695313-3.332031-2.570312-8.121094-1.957031-10.695312 1.378907-28.574219 37.015624-43.679688 81.367187-43.679688 128.25 0 39.394531 10.949219 77.707031 31.679688 110.96875v11.285156c0 33.132812 26.957031 60.089844 60.089843 60.089844 3.839844 0 7.675781-.367188 11.40625-1.082032.167969-.035156.332031-.074218.5-.109375 21.527344 12.664063 44.78125 21.265625 69.265625 25.613281-.796875 8.226563-1.949218 17.320313-3.613281 26.378907-3.675781 20-12.566406 53.550781-30.8125 53.550781h-24.511719c-4.210937 0-7.625 3.414062-7.625 7.625s3.414063 7.625 7.625 7.625h192.070313c4.210937 0 7.625-3.414062 7.625-7.625s-3.410157-7.621094-7.621094-7.621094zm-214.308594-245.019531c2.875 0 5.742188.273437 8.527344.808594 8.792969 1.691406 16.8125 5.953125 23.183594 12.328125 8.460937 8.464844 13.125 19.710937 13.136719 31.671875-48.558594-1.871094-62.78125-20.613281-63.59375-21.746094-1.714844-2.972656-5.144532-4.316406-8.46875-3.441406-3.351563.878906-5.617188 4.023437-5.617188 7.488281 0 3.625-5.152344 9.070312-11.785156 13.304688 2.230468-22.65625 21.390625-40.414063 44.617187-40.414063zm0 125.417969c-24.722656 0-44.839843-20.117188-44.839843-44.84375v-13.273438c0-.007812 0-.011718 0-.015625v-9.488281c8.148437-3.632812 17.070312-9.746094 22.410156-17.195312 2.464844 1.90625 5.496094 3.9375 9.179687 5.945312 15.007813 8.171875 34.53125 12.703125 58.097657 13.523438v20.503906c0 21.46875-15.273438 39.988281-36.324219 44.035156-2.78125.535156-5.648438.808594-8.523438.808594zm0 0" data-original="#000000" class="active-path" data-old_color="#000000" fill="#23A5F0"/><path d="m220.53125 108.488281c-5.585938 5.585938-14.675781 5.585938-20.261719 0-2.378906-2.382812-6.242187-2.382812-8.625 0-2.378906 2.378907-2.378906 6.242188 0 8.625 5.171875 5.167969 11.964844 7.753907 18.757813 7.753907 6.789062 0 13.582031-2.585938 18.753906-7.753907 2.382812-2.382812 2.382812-6.246093 0-8.625-2.382812-2.382812-6.246094-2.382812-8.625 0zm0 0" data-original="#000000" class="active-path" data-old_color="#000000" fill="#23A5F0"/><path d="m195.167969 94.726562v-7.8125c0-4.210937-3.414063-7.625-7.625-7.625-4.207031 0-7.621094 3.414063-7.621094 7.625v7.8125c0 4.210938 3.414063 7.625 7.621094 7.625 4.210937 0 7.625-3.414062 7.625-7.625zm0 0" data-original="#000000" class="active-path" data-old_color="#000000" fill="#23A5F0"/><path d="m233.257812 79.289062c-4.210937 0-7.625 3.414063-7.625 7.625v7.8125c0 4.210938 3.414063 7.625 7.625 7.625 4.210938 0 7.625-3.414062 7.625-7.625v-7.8125c0-4.210937-3.414062-7.625-7.625-7.625zm0 0" data-original="#000000" class="active-path" data-old_color="#000000" fill="#23A5F0"/><path d="m102.402344 342.5625c-5.585938 5.585938-14.675782 5.585938-20.261719 0-2.378906-2.382812-6.242187-2.382812-8.625 0-2.378906 2.378906-2.378906 6.242188 0 8.625 5.171875 5.167969 11.964844 7.753906 18.757813 7.753906 6.789062 0 13.582031-2.585937 18.753906-7.753906 2.382812-2.382812 2.382812-6.246094 0-8.625-2.382813-2.382812-6.242188-2.382812-8.625 0zm0 0" data-original="#000000" class="active-path" data-old_color="#000000" fill="#23A5F0"/><path d="m77.039062 328.800781v-7.8125c0-4.210937-3.414062-7.625-7.625-7.625-4.207031 0-7.621093 3.414063-7.621093 7.625v7.8125c0 4.210938 3.414062 7.625 7.621093 7.625 4.210938 0 7.625-3.414062 7.625-7.625zm0 0" data-original="#000000" class="active-path" data-old_color="#000000" fill="#23A5F0"/><path d="m115.128906 313.363281c-4.210937 0-7.621094 3.414063-7.621094 7.625v7.8125c0 4.210938 3.410157 7.625 7.621094 7.625 4.210938 0 7.625-3.414062 7.625-7.625v-7.8125c0-4.210937-3.414062-7.625-7.625-7.625zm0 0" data-original="#000000" class="active-path" data-old_color="#000000" fill="#23A5F0"/><path d="m338.660156 342.5625c-2.707031 2.703125-6.304687 4.195312-10.132812 4.195312-3.824219 0-7.421875-1.492187-10.128906-4.195312-2.382813-2.382812-6.242188-2.382812-8.625 0-2.382813 2.378906-2.382813 6.242188 0 8.625 5.007812 5.007812 11.671874 7.769531 18.753906 7.769531 7.085937 0 13.746094-2.761719 18.757812-7.769531 2.378906-2.382812 2.378906-6.246094 0-8.625-2.382812-2.382812-6.246094-2.382812-8.625 0zm0 0" data-original="#000000" class="active-path" data-old_color="#000000" fill="#23A5F0"/><path d="m313.296875 328.800781v-7.8125c0-4.210937-3.414063-7.625-7.625-7.625s-7.625 3.414063-7.625 7.625v7.8125c0 4.210938 3.414063 7.625 7.625 7.625s7.625-3.414062 7.625-7.625zm0 0" data-original="#000000" class="active-path" data-old_color="#000000" fill="#23A5F0"/><path d="m351.386719 313.363281c-4.210938 0-7.625 3.414063-7.625 7.625v7.8125c0 4.210938 3.414062 7.625 7.625 7.625 4.210937 0 7.621093-3.414062 7.621093-7.625v-7.8125c0-4.210937-3.410156-7.625-7.621093-7.625zm0 0" data-original="#000000" class="active-path" data-old_color="#000000" fill="#23A5F0"/><path d="m210.398438 168.488281c-4.210938 0-7.625 3.414063-7.625 7.625v10.53125h-110.503907c-4.207031 0-7.621093 3.414063-7.621093 7.625v24.722657c0 4.207031 3.414062 7.621093 7.621093 7.621093 4.210938 0 7.625-3.414062 7.625-7.621093v-17.101563h221.007813v17.101563c0 4.207031 3.414062 7.621093 7.625 7.621093 4.210937 0 7.625-3.414062 7.625-7.621093v-24.722657c0-4.210937-3.414063-7.625-7.625-7.625h-110.503906v-10.53125c0-4.210937-3.414063-7.625-7.625-7.625zm0 0" data-original="#000000" class="active-path" data-old_color="#000000" fill="#23A5F0"/></g> </svg>
