<svg width="10" height="19" viewBox="0 0 10 19" fill="none" xmlns="http://www.w3.org/2000/svg">
<path d="M8.63636 4.31818V14.25C8.63636 16.1586 7.00909 17.7045 5 17.7045C2.99091 17.7045 1.36364 16.1586 1.36364 14.25V3.45455C1.36364 2.26273 2.38182 1.29545 3.63636 1.29545C4.89091 1.29545 5.90909 2.26273 5.90909 3.45455V12.5227C5.90909 12.9977 5.5 13.3864 5 13.3864C4.5 13.3864 4.09091 12.9977 4.09091 12.5227V4.31818H2.72727V12.5227C2.72727 13.7145 3.74545 14.6818 5 14.6818C6.25455 14.6818 7.27273 13.7145 7.27273 12.5227V3.45455C7.27273 1.54591 5.64545 0 3.63636 0C1.62727 0 0 1.54591 0 3.45455V14.25C0 16.8755 2.23636 19 5 19C7.76364 19 10 16.8755 10 14.25V4.31818H8.63636Z" fill="white"/>
</svg>
