<svg width="26" height="26" viewBox="0 0 26 26" fill="none" xmlns="http://www.w3.org/2000/svg">
<path d="M26 13C26 20.1797 20.1797 26 13 26C5.8203 26 0 20.1797 0 13C0 5.8203 5.8203 0 13 0C20.1797 0 26 5.8203 26 13Z" fill="#132234"/>
<rect x="5" y="5" width="16" height="16" rx="2" fill="white"/>
<path d="M10.0079 10.9756H9.27544L7.84966 8.63675V10.9756H7.11724V7.42093H7.84966L9.27789 9.76468V7.42093H10.0079V10.9756Z" fill="#132234"/>
<path d="M14.0498 13.4595H12.6436V14.4116H14.2939V15H11.9111V11.4453H14.2891V12.0386H12.6436V12.8857H14.0498V13.4595Z" fill="#132234"/>
<path d="M18.3984 17.9862L18.877 15.4569H19.6069L18.8184 19.0116H18.0811L17.5024 16.6337L16.9238 19.0116H16.1865L15.3979 15.4569H16.1279L16.6089 17.9814L17.1948 15.4569H17.8149L18.3984 17.9862Z" fill="#132234"/>
</svg>
