<svg width="196" height="175" viewBox="0 0 196 175" fill="none" xmlns="http://www.w3.org/2000/svg">
<g filter="url(#filter0_d)">
<circle cx="126" cy="105" r="50" fill="#F1CD5B"/>
</g>
<path d="M126.68 104.711C126.68 107.898 126.164 110.672 125.133 113.031C124.102 115.375 122.672 117.258 120.844 118.68L126.516 123.133L122.039 127.094L114.773 121.258C113.945 121.398 113.086 121.469 112.195 121.469C109.367 121.469 106.844 120.789 104.625 119.43C102.406 118.07 100.688 116.133 99.4688 113.617C98.25 111.086 97.6328 108.18 97.6172 104.898V103.211C97.6172 99.8516 98.2188 96.8984 99.4219 94.3516C100.641 91.7891 102.352 89.8281 104.555 88.4688C106.773 87.0938 109.305 86.4062 112.148 86.4062C114.992 86.4062 117.516 87.0938 119.719 88.4688C121.938 89.8281 123.648 91.7891 124.852 94.3516C126.07 96.8984 126.68 99.8438 126.68 103.188V104.711ZM119.555 103.164C119.555 99.5859 118.914 96.8672 117.633 95.0078C116.352 93.1484 114.523 92.2188 112.148 92.2188C109.789 92.2188 107.969 93.1406 106.688 94.9844C105.406 96.8125 104.758 99.5 104.742 103.047V104.711C104.742 108.195 105.383 110.898 106.664 112.82C107.945 114.742 109.789 115.703 112.195 115.703C114.555 115.703 116.367 114.781 117.633 112.938C118.898 111.078 119.539 108.375 119.555 104.828V103.164ZM147.562 121H140.789V94.8906L132.703 97.3984V91.8906L146.836 86.8281H147.562V121Z" fill="black"/>
<path d="M126 46C126 28.0359 126 17.9641 126 -1.43051e-06" stroke="#F1CD5B" stroke-width="2"/>
<path d="M26 105C42.0115 105 50.9885 105 67 105" stroke="#F1CD5B" stroke-width="2"/>
<path d="M9 122V122C18.3888 122 26 114.389 26 105V105C26 95.6112 18.3888 88 9 88V88" stroke="#F1CD5B" stroke-width="2"/>
<path d="M126 164V164C158.585 164 185 137.585 185 105V105C185 72.4152 158.585 46 126 46V46" stroke="#F1CD5B" stroke-width="2"/>
<path d="M126 46V46C93.4152 46 67 72.4152 67 105V105C67 137.585 93.4152 164 126 164V164" stroke="#F1CD5B" stroke-width="2"/>
<circle cx="10.0001" cy="105" r="10" transform="rotate(-180 10.0001 105)" fill="#F1CD5B"/>
<defs>
<filter id="filter0_d" x="56" y="35" width="140" height="140" filterUnits="userSpaceOnUse" color-interpolation-filters="sRGB">
<feFlood flood-opacity="0" result="BackgroundImageFix"/>
<feColorMatrix in="SourceAlpha" type="matrix" values="0 0 0 0 0 0 0 0 0 0 0 0 0 0 0 0 0 0 127 0"/>
<feOffset/>
<feGaussianBlur stdDeviation="10"/>
<feColorMatrix type="matrix" values="0 0 0 0 0.945098 0 0 0 0 0.803922 0 0 0 0 0.356863 0 0 0 0.5 0"/>
<feBlend mode="normal" in2="BackgroundImageFix" result="effect1_dropShadow"/>
<feBlend mode="normal" in="SourceGraphic" in2="effect1_dropShadow" result="shape"/>
</filter>
</defs>
</svg>
