<svg width="26" height="26" viewBox="0 0 26 26" fill="none" xmlns="http://www.w3.org/2000/svg">
<path d="M26 13C26 20.1797 20.1797 26 13 26C5.8203 26 0 20.1797 0 13C0 5.8203 5.8203 0 13 0C20.1797 0 26 5.8203 26 13Z" fill="#132234"/>
<path fill-rule="evenodd" clip-rule="evenodd" d="M6.4964 7.51103L7.50743 6.5L19.5036 18.489L18.4925 19.5L17.0226 18.0301C16.2769 18.6252 15.3949 19.0698 14.4341 19.2849V17.8078C15.0077 17.6429 15.5311 17.3632 15.9972 17.0119L13 14.0146V18.7399L9.41477 15.1547H6.54659V10.8525H9.41477L9.62271 10.6373L6.4964 7.51103ZM17.7253 14.6815C17.9117 14.1581 18.0193 13.5916 18.0193 13.0036C18.0193 10.7306 16.5063 8.80891 14.4341 8.19225V6.71514C17.3094 7.36765 19.4534 9.93467 19.4534 13.0036C19.4534 14.0003 19.2239 14.9396 18.8224 15.7786L17.7253 14.6815ZM13 7.26727L11.6519 8.61531L13 9.96336V7.26727ZM14.4341 10.114C15.4953 10.6446 16.2267 11.7345 16.2267 13.0037C16.2267 13.061 16.2195 13.1184 16.2124 13.1757L14.4341 11.3975V10.114Z" fill="white"/>
</svg>
