<svg width="196" height="296" viewBox="0 0 196 296" fill="none" xmlns="http://www.w3.org/2000/svg">
<path d="M125 46C125 28.0359 125 17.9641 125 -1.43051e-06" stroke="#F1CD5B" stroke-width="2"/>
<g filter="url(#filter0_d)">
<circle cx="126" cy="104" r="50" fill="#F1CD5B"/>
</g>
<path d="M126.68 103.711C126.68 106.898 126.164 109.672 125.133 112.031C124.102 114.375 122.672 116.258 120.844 117.68L126.516 122.133L122.039 126.094L114.773 120.258C113.945 120.398 113.086 120.469 112.195 120.469C109.367 120.469 106.844 119.789 104.625 118.43C102.406 117.07 100.688 115.133 99.4688 112.617C98.25 110.086 97.6328 107.18 97.6172 103.898V102.211C97.6172 98.8516 98.2188 95.8984 99.4219 93.3516C100.641 90.7891 102.352 88.8281 104.555 87.4688C106.773 86.0938 109.305 85.4062 112.148 85.4062C114.992 85.4062 117.516 86.0938 119.719 87.4688C121.938 88.8281 123.648 90.7891 124.852 93.3516C126.07 95.8984 126.68 98.8438 126.68 102.188V103.711ZM119.555 102.164C119.555 98.5859 118.914 95.8672 117.633 94.0078C116.352 92.1484 114.523 91.2188 112.148 91.2188C109.789 91.2188 107.969 92.1406 106.688 93.9844C105.406 95.8125 104.758 98.5 104.742 102.047V103.711C104.742 107.195 105.383 109.898 106.664 111.82C107.945 113.742 109.789 114.703 112.195 114.703C114.555 114.703 116.367 113.781 117.633 111.938C118.898 110.078 119.539 107.375 119.555 103.828V102.164ZM147.562 120H140.789V93.8906L132.703 96.3984V90.8906L146.836 85.8281H147.562V120Z" fill="black"/>
<path d="M126 296C126 243.67 126 214.33 126 162" stroke="#F1CD5B" stroke-width="2"/>
<path d="M27 104C46.5262 104 57.4738 104 77 104" stroke="#F1CD5B" stroke-width="2"/>
<path d="M126 163V163C158.585 163 185 136.585 185 104V104C185 71.4152 158.585 45 126 45V45" stroke="#F1CD5B" stroke-width="2"/>
<path d="M10 121V121C19.3888 121 27 113.389 27 104V104C27 94.6112 19.3888 87 10 87V87" stroke="#F1CD5B" stroke-width="2"/>
<circle cx="10" cy="104" r="10" transform="rotate(-180 10 104)" fill="#F1CD5B"/>
<defs>
<filter id="filter0_d" x="56" y="34" width="140" height="140" filterUnits="userSpaceOnUse" color-interpolation-filters="sRGB">
<feFlood flood-opacity="0" result="BackgroundImageFix"/>
<feColorMatrix in="SourceAlpha" type="matrix" values="0 0 0 0 0 0 0 0 0 0 0 0 0 0 0 0 0 0 127 0"/>
<feOffset/>
<feGaussianBlur stdDeviation="10"/>
<feColorMatrix type="matrix" values="0 0 0 0 0.945098 0 0 0 0 0.803922 0 0 0 0 0.356863 0 0 0 0.5 0"/>
<feBlend mode="normal" in2="BackgroundImageFix" result="effect1_dropShadow"/>
<feBlend mode="normal" in="SourceGraphic" in2="effect1_dropShadow" result="shape"/>
</filter>
</defs>
</svg>
