<?xml version="1.0"?>
<svg xmlns="http://www.w3.org/2000/svg" id="icons" enable-background="new 0 0 64 64" height="512px" viewBox="0 0 64 64" width="512px"><g><path d="m27.001 35c0-6.065-4.935-11-11-11s-11 4.935-11 11 4.935 11 11 11 11-4.935 11-11zm-11 9c-4.963 0-9-4.037-9-9s4.037-9 9-9 9 4.037 9 9-4.037 9-9 9z" data-original="#000000" class="active-path" data-old_color="#000000" fill="#23A5F0"/><path d="m16.001 27c-.553 0-1 .447-1 1s.447 1 1 1c3.309 0 6 2.691 6 6 0 .553.447 1 1 1s1-.447 1-1c0-4.411-3.589-8-8-8z" data-original="#000000" class="active-path" data-old_color="#000000" fill="#23A5F0"/><path d="m59 35c0-6.065-4.935-11-11-11s-11 4.935-11 11 4.935 11 11 11 11-4.935 11-11zm-11 9c-4.963 0-9-4.037-9-9s4.037-9 9-9 9 4.037 9 9-4.037 9-9 9z" data-original="#000000" class="active-path" data-old_color="#000000" fill="#23A5F0"/><path d="m48 27c-.553 0-1 .447-1 1s.447 1 1 1c3.309 0 6 2.691 6 6 0 .553.447 1 1 1s1-.447 1-1c0-4.411-3.589-8-8-8z" data-original="#000000" class="active-path" data-old_color="#000000" fill="#23A5F0"/><path d="m63 34h-1.051c-.152-2.147-.787-4.16-1.803-5.933-.011-.021-.01-.046-.022-.067-.016-.026-.041-.042-.059-.066-1.192-2.027-2.876-3.724-4.892-4.934h.827c1.654 0 3-1.346 3-3s-1.346-3-3-3h-23v-1c0-.553-.447-1-1-1s-1 .447-1 1v1h-23c-1.654 0-3 1.346-3 3s1.346 3 3 3h.827c-2.016 1.209-3.699 2.906-4.892 4.934-.017.024-.042.039-.058.066-.013.021-.012.046-.022.067-1.016 1.773-1.651 3.786-1.803 5.933h-1.052c-.553 0-1 .447-1 1s.447 1 1 1h1.052c.152 2.147.787 4.16 1.803 5.933.011.022.01.046.022.067.024.042.057.074.086.111 1.211 2.043 2.924 3.75 4.972 4.954.024.018.04.043.066.059.03.018.063.024.094.038 2.04 1.164 4.393 1.838 6.906 1.838s4.866-.674 6.906-1.838c.031-.014.063-.021.094-.038.026-.016.042-.041.066-.059 2.048-1.204 3.761-2.911 4.972-4.954.029-.037.062-.069.086-.111.013-.021.012-.045.022-.067 1.173-2.047 1.854-4.409 1.854-6.933 0-.551.448-.999.999-.999h2c.001 0 .002-.001.002-.001.551.002.998.449.998 1 0 2.523.681 4.886 1.854 6.933.011.022.01.046.022.067.024.042.057.074.086.111 1.212 2.043 2.923 3.75 4.972 4.954.024.018.04.043.066.059.03.018.063.024.094.038 2.04 1.164 4.393 1.838 6.906 1.838s4.866-.674 6.906-1.838c.031-.014.063-.021.094-.038.026-.016.042-.041.066-.059 2.049-1.204 3.76-2.911 4.972-4.954.029-.037.062-.069.086-.111.013-.021.012-.045.022-.067 1.016-1.772 1.65-3.785 1.803-5.933h1.051c.553 0 1-.447 1-1s-.447-1-1-1zm-49.999-15c.552 0 1 .448 1 1s-.448 1-1 1h-2.186c.113-.314.185-.647.185-1s-.072-.686-.185-1zm2.815 2c.112-.314.185-.647.185-1s-.072-.686-.185-1h13.368c-.112.314-.184.647-.184 1s.072.686.185 1zm17.184-1c0 .552-.448 1-1 1s-1-.448-1-1 .448-1 1-1 1 .448 1 1zm1.815-1h16.185c.552 0 1 .448 1 1s-.448 1-1 1h-16.185c.113-.314.185-.647.185-1s-.072-.686-.185-1zm21.185 2h-2.185c.113-.314.185-.647.185-1s-.072-.686-.185-1h2.185c.552 0 1 .448 1 1s-.448 1-1 1zm-48-2c.552 0 1 .448 1 1s-.448 1-1 1-1-.448-1-1 .448-1 1-1zm14.832 25.854c-.289-.444-.871-.595-1.331-.327-.462.267-.621.844-.384 1.313-1.271.603-2.66.99-4.126 1.111-.028-.528-.455-.95-.99-.95s-.962.422-.99.95c-1.466-.121-2.854-.509-4.126-1.111.237-.469.078-1.046-.384-1.313-.463-.268-1.043-.117-1.331.327-1.179-.82-2.203-1.844-3.022-3.022.442-.288.595-.869.327-1.331s-.845-.621-1.313-.385c-.603-1.271-.99-2.659-1.111-4.125.528-.028.95-.455.95-.99s-.422-.962-.95-.99c.121-1.465.509-2.853 1.109-4.122.144.071.295.111.447.111.346 0 .682-.179.867-.5.268-.462.115-1.043-.327-1.331.819-1.178 1.842-2.201 3.02-3.021.19.293.506.459.835.459.17 0 .342-.043.499-.134.462-.267.621-.844.384-1.313 1.271-.603 2.66-.99 4.126-1.111.028.528.455.95.99.95s.962-.422.99-.95c1.466.121 2.854.509 4.126 1.111-.237.469-.078 1.046.384 1.313.157.091.329.134.499.134.329 0 .645-.166.835-.459 1.178.819 2.2 1.843 3.02 3.021-.442.288-.595.869-.327 1.331.186.321.521.5.867.5.152 0 .304-.04.447-.112.601 1.27.988 2.657 1.109 4.122-.528.028-.95.455-.95.99s.422.962.95.99c-.121 1.466-.509 2.854-1.111 4.125-.469-.236-1.046-.078-1.313.385-.268.462-.115 1.043.327 1.331-.819 1.179-1.843 2.202-3.022 3.023zm5.315-16.787c-.011-.021-.01-.046-.022-.067-.016-.026-.041-.042-.059-.066-1.192-2.028-2.876-3.724-4.891-4.934h7.825v9.001c-.454 0-.881.109-1.268.291-.296-1.511-.842-2.93-1.585-4.225zm4.853 3.933v-9h7.826c-2.016 1.209-3.699 2.906-4.892 4.934-.018.024-.043.039-.059.066-.013.021-.012.046-.022.067-.742 1.295-1.288 2.714-1.585 4.224-.386-.182-.813-.291-1.268-.291zm21.831 12.854c-.289-.444-.87-.595-1.331-.327-.461.267-.621.844-.385 1.313-1.271.603-2.659.99-4.125 1.111-.028-.529-.455-.951-.99-.951s-.962.422-.99.95c-1.466-.121-2.854-.509-4.125-1.111.236-.469.076-1.046-.385-1.313-.462-.268-1.043-.117-1.331.327-1.179-.82-2.202-1.844-3.022-3.022.442-.288.595-.869.327-1.331s-.845-.621-1.313-.385c-.603-1.271-.99-2.659-1.111-4.125.528-.028.95-.455.95-.99s-.422-.962-.95-.99c.121-1.465.509-2.853 1.109-4.122.144.072.296.112.447.112.346 0 .682-.179.867-.5.268-.462.115-1.043-.327-1.331.819-1.178 1.842-2.201 3.02-3.021.189.293.506.459.835.459.17 0 .342-.043.499-.134.461-.267.621-.844.385-1.313 1.271-.603 2.659-.99 4.125-1.111.028.529.455.951.99.951s.962-.422.99-.95c1.466.121 2.854.509 4.125 1.111-.236.469-.076 1.046.385 1.313.157.091.329.134.499.134.329 0 .646-.166.835-.459 1.178.819 2.2 1.843 3.02 3.021-.442.288-.595.869-.327 1.331.186.321.521.5.867.5.151 0 .304-.04.447-.112.601 1.27.988 2.657 1.109 4.122-.528.027-.95.454-.95.989s.422.962.95.99c-.121 1.466-.509 2.854-1.111 4.125-.47-.236-1.046-.078-1.313.385-.268.462-.115 1.043.327 1.331-.82 1.179-1.843 2.202-3.022 3.023z" data-original="#000000" class="active-path" data-old_color="#000000" fill="#23A5F0"/></g> </svg>
