<?xml version="1.0" encoding="UTF-8" standalone="yes"?>
<svg xmlns="http://www.w3.org/2000/svg" viewBox="0 0 26 26" width="100" height="100" fill="#000000">
  <path d="M 15 0 C 7.699219 0 6 1.8125 6 6.8125 C 6 8.113281 6.695313 13.207031 7.09375 14.40625 C 6.394531 13.90625 5 9.898438 5 8 C 4 8 0.800781 9.011719 2.5 13.3125 C 4.738281 19.253906 7.371094 20.179688 9.03125 20.71875 C 9.109375 22.839844 9.457031 24.558594 9.8125 25 C 10.511719 25.699219 11.898438 26 15.5 26 C 19.101563 26 20.695313 25.707031 21.09375 24.90625 C 21.792969 23.605469 22 20.5 22 20.5 C 22 20.5 18.699219 21.804688 14.5 21.40625 C 13.8125 21.347656 13.191406 21.238281 12.625 21.125 C 15.789063 20.972656 20.386719 20.238281 21.3125 19.3125 C 23.3125 17.3125 24 11.511719 24 6.8125 C 24 1.8125 22.300781 0 15 0 Z"/>
</svg>
