<svg width="41" height="37" viewBox="0 0 41 37" fill="none" xmlns="http://www.w3.org/2000/svg">
<path d="M20.5007 7.87922C22.3213 5.43839 24.159 3.39367 25.8206 2.09392C26.6815 1.42054 27.5081 0.936631 28.2714 0.70764C29.0388 0.477435 29.761 0.500404 30.3792 0.871347C30.9953 1.23881 31.371 1.86945 31.5591 2.6648C31.7467 3.45791 31.7537 4.43556 31.6188 5.54013C31.3581 7.67595 30.5594 10.3435 29.4174 13.1952C32.3817 13.6009 35.0208 14.2215 36.9455 15.0572C37.9419 15.4898 38.7612 15.9861 39.3349 16.5518C39.9112 17.1202 40.2506 17.771 40.2506 18.4999C40.2506 19.2291 39.9112 19.88 39.3349 20.4485C38.7612 21.0144 37.9419 21.5106 36.9454 21.9432C35.0207 22.7786 32.3817 23.3988 29.4174 23.8045C30.5594 26.6562 31.3581 29.3242 31.6188 31.4602C31.7537 32.5648 31.7467 33.5425 31.5591 34.3356C31.3709 35.1311 30.9951 35.7617 30.3786 36.1288C30.3785 36.1288 30.3785 36.1288 30.3785 36.1288L30.2506 35.914C29.9386 36.1006 29.5923 36.1891 29.2163 36.1891C27.0215 36.1891 23.8239 33.1648 20.6562 28.906L20.5007 7.87922ZM20.5007 7.87922C18.6815 5.43926 16.8448 3.39686 15.1835 2.0981C14.3227 1.4252 13.4959 0.941528 12.7323 0.711979C11.9648 0.481243 11.2422 0.502798 10.6229 0.870804L10.6227 0.870926C10.0058 1.23829 9.62967 1.86908 9.44127 2.66474C9.25347 3.45788 9.24636 4.43555 9.3812 5.54013C9.64194 7.67597 10.441 10.3435 11.5837 13.1952C8.61944 13.6009 5.98044 14.2215 4.05576 15.0572C3.05933 15.4898 2.23998 15.9861 1.66634 16.5518C1.09003 17.1202 0.75061 17.771 0.75061 18.4999C0.75061 19.2291 1.08999 19.88 1.66633 20.4485C2.23998 21.0144 3.05935 21.5106 4.05578 21.9432C5.98047 22.7786 8.61946 23.3988 11.5837 23.8045C10.441 26.6562 9.64194 29.3242 9.3812 31.4602C9.24636 32.5649 9.25347 33.5426 9.44127 34.3356C9.62959 35.1309 10.0055 35.7613 10.622 36.1284M20.5007 7.87922L20.5006 29.1155C18.9509 31.1923 17.3904 32.9806 15.9375 34.268C15.1795 34.9396 14.4456 35.4796 13.753 35.8527C13.0621 36.225 12.3977 36.4391 11.7833 36.4391C11.3694 36.4391 10.9759 36.3427 10.622 36.1284M10.622 36.1284C10.6217 36.1282 10.6213 36.128 10.621 36.1278L10.7506 35.914L10.6228 36.1288C10.6225 36.1287 10.6223 36.1285 10.622 36.1284ZM22.5874 22.2402C22.945 21.6419 23.3025 21.0279 23.6598 20.3887C24.0183 19.7475 24.3562 19.1188 24.6801 18.4998C24.3563 17.881 24.0184 17.2525 23.66 16.6113L22.5874 22.2402ZM22.5874 22.2402C21.9073 22.2589 21.214 22.2716 20.5006 22.2716C19.7873 22.2716 19.0927 22.2589 18.4139 22.2402C18.0562 21.6419 17.6987 21.0279 17.3414 20.3887C16.983 19.7476 16.6451 19.1189 16.3198 18.4999C16.6451 17.8808 16.983 17.2521 17.3414 16.611C17.6987 15.9718 18.0562 15.3592 18.414 14.7609C19.0938 14.7408 19.7872 14.7281 20.5006 14.7281C21.214 14.7281 21.9072 14.7408 22.5856 14.7608C22.9434 15.3591 23.3011 15.9719 23.66 16.6113L22.5874 22.2402ZM25.4474 15.563L25.4471 15.5625C25.3183 15.3323 25.1857 15.1029 25.0536 14.8748C25.514 14.906 25.9632 14.9418 26.4042 14.9804C26.2169 15.3933 26.0223 15.8122 25.8177 16.2391C25.6958 16.0137 25.5728 15.7881 25.4474 15.563ZM15.1835 16.2391C14.979 15.8122 14.7844 15.3933 14.597 14.9804C15.0377 14.9418 15.4863 14.906 15.9469 14.8748C15.8148 15.103 15.6832 15.3318 15.5541 15.5625L15.5539 15.563C15.4284 15.7881 15.3054 16.0137 15.1835 16.2391ZM35.6957 20.2064C34.032 20.8289 31.6103 21.4056 28.5681 21.7904C28.0865 20.7037 27.5619 19.6006 27.0053 18.4999C27.5619 17.3993 28.0865 16.2974 28.5682 15.2093C31.6103 15.5949 34.032 16.1716 35.6958 16.7939C36.5458 17.1119 37.1864 17.4375 37.6095 17.7481C38.0477 18.0697 38.1906 18.3284 38.1906 18.4999C38.1906 18.6713 38.0477 18.9302 37.6095 19.2519C37.1863 19.5625 36.5457 19.8883 35.6957 20.2064ZM29.3436 34.3071C29.2085 34.385 28.9267 34.3886 28.4363 34.1561C27.9638 33.9322 27.3696 33.5222 26.677 32.9217C25.3198 31.7451 23.621 29.8689 21.773 27.3409C22.4468 26.3675 23.1122 25.352 23.7593 24.3034C24.9565 24.2495 26.1389 24.1671 27.2873 24.0548C28.4869 26.9666 29.2145 29.4207 29.5241 31.2208C29.6822 32.1399 29.7292 32.8768 29.6799 33.4122C29.6552 33.6799 29.6074 33.887 29.5439 34.0379C29.4808 34.1881 29.4088 34.2677 29.3436 34.3071ZM11.6577 34.3072C11.5922 34.2678 11.52 34.1881 11.4567 34.0378C11.3932 33.8869 11.3452 33.6798 11.3204 33.4121C11.2709 32.8767 11.3178 32.1398 11.4759 31.2208C11.7855 29.4208 12.5135 26.9666 13.7139 24.0548C14.8622 24.1671 16.0433 24.2495 17.2405 24.3034C17.8889 25.352 18.5543 26.3688 19.2283 27.3426C17.381 29.8714 15.6833 31.7484 14.3265 32.925C13.6342 33.5254 13.04 33.9351 12.5674 34.1585C12.0768 34.3904 11.7942 34.3863 11.6577 34.3072ZM2.81061 18.4999C2.81061 18.3283 2.95346 18.0696 3.39149 17.7481C3.81453 17.4375 4.45499 17.1119 5.30489 16.7939C6.96836 16.1716 9.39001 15.5949 12.4329 15.2094C12.9134 16.2976 13.4394 17.3995 13.9959 18.4999C13.4393 19.6004 12.9134 20.7035 12.4329 21.7904C9.39005 21.4056 6.96839 20.8289 5.30491 20.2064C4.45503 19.8883 3.81457 19.5625 3.39153 19.2519C2.9535 18.9302 2.81061 18.6714 2.81061 18.4999ZM11.6575 2.69263C11.7095 2.66269 11.7796 2.64198 11.88 2.64198C12.129 2.64198 12.5042 2.77045 13.0034 3.07566C13.4946 3.376 14.0768 3.82931 14.7321 4.43484C16.0153 5.6206 17.5604 7.37323 19.2269 9.65416C18.5544 10.6297 17.8917 11.6492 17.2451 12.6963C16.0464 12.7502 14.8625 12.8326 13.7139 12.9449C12.5135 10.0331 11.7855 7.57894 11.4759 5.77894C11.3178 4.85986 11.2709 4.123 11.3204 3.58759C11.3452 3.31992 11.3932 3.11284 11.4567 2.96191C11.52 2.81179 11.592 2.7321 11.6575 2.69263ZM20.5006 12.6194C20.2461 12.6194 19.9918 12.6225 19.7385 12.6268C19.994 12.231 20.2481 11.8467 20.5005 11.4727C20.7527 11.8466 21.0061 12.2309 21.2613 12.6268C21.0082 12.6225 20.7542 12.6194 20.5006 12.6194ZM15.554 21.437C15.6823 21.668 15.8136 21.8969 15.9456 22.1247C15.4856 22.0944 15.0377 22.0583 14.597 22.0194C14.7843 21.6064 14.9789 21.1877 15.1835 20.7614C15.3054 20.9867 15.4285 21.2128 15.554 21.437ZM20.5006 24.3803C20.7556 24.3803 21.0104 24.3772 21.2644 24.3729C21.0082 24.7701 20.7539 25.154 20.5006 25.5282C20.2468 25.1538 19.9921 24.7699 19.7362 24.3729C19.9904 24.3772 20.2454 24.3803 20.5006 24.3803ZM25.0545 22.1247C25.1863 21.8969 25.318 21.6679 25.4471 21.4372C25.5726 21.2129 25.6958 20.9868 25.8177 20.7614C26.0223 21.1876 26.2169 21.6064 26.4042 22.0194C25.9631 22.0583 25.5145 22.0945 25.0545 22.1247ZM29.1212 2.64198C29.2204 2.64198 29.2919 2.66279 29.3436 2.69259C29.4089 2.73202 29.4808 2.81165 29.5439 2.96176C29.6074 3.11271 29.6552 3.31982 29.6799 3.58751C29.7292 4.12295 29.6822 4.85985 29.5241 5.77894C29.2145 7.57896 28.4869 10.0331 27.2873 12.9449C26.1387 12.8326 24.9548 12.7502 23.7561 12.6963C23.1096 11.6493 22.447 10.6285 21.7744 9.65407C23.4409 7.37318 24.986 5.62059 26.2691 4.43484C26.9244 3.82931 27.5066 3.376 27.9978 3.07566C28.497 2.77045 28.8722 2.64198 29.1212 2.64198ZM20.5006 19.0542C20.2153 19.0542 19.9706 18.8131 19.9706 18.4999C19.9706 18.1879 20.2156 17.9455 20.5006 17.9455C20.7856 17.9455 21.0306 18.1879 21.0306 18.4999C21.0306 18.8131 20.7859 19.0542 20.5006 19.0542ZM20.5006 15.8368C19.0652 15.8368 17.9106 17.0387 17.9106 18.4999C17.9106 19.961 19.0652 21.1629 20.5006 21.1629C21.936 21.1629 23.0906 19.961 23.0906 18.4999C23.0906 17.0387 21.936 15.8368 20.5006 15.8368Z" fill="#8B8985" stroke="#8B8985" stroke-width="0.5"/>
</svg>
