<svg width="41" height="42" viewBox="0 0 41 42" fill="none" xmlns="http://www.w3.org/2000/svg">
<path d="M19.6377 1.76134L19.6378 1.76124C20.9541 0.412925 23.097 0.412552 24.4105 1.76135C25.503 2.88187 25.7342 4.44779 25.1692 5.72538C27.0867 7.13348 28.9464 8.74311 30.7035 10.5454C32.4587 12.344 34.0264 14.2488 35.3966 16.2129C36.6378 15.6352 38.1519 15.8535 39.1729 16.9023C40.5747 18.3402 40.584 20.527 39.2679 21.8768L28.9532 32.456C28.2966 33.1295 27.4312 33.4691 26.5668 33.4691C25.701 33.4691 24.8356 33.1295 24.1789 32.456L24.1773 32.4544L24.1759 32.4529L24.0838 32.3569C24.0836 32.3567 24.0833 32.3564 24.0831 32.3562C23.0613 31.3092 22.8516 29.7597 23.4194 28.4901C22.2624 27.6421 21.129 26.7185 20.0247 25.7204C15.2326 31.7849 8.75899 39.1904 7.99168 39.979L7.99151 39.9792C7.1647 40.8272 6.0762 41.2531 4.98891 41.2531C3.9015 41.2531 2.8146 40.8271 1.98787 39.9792C0.336396 38.2854 0.336242 35.5321 1.98787 33.8398M19.6377 1.76134L1.98787 33.8398M19.6377 1.76134L9.32144 12.3405L9.32143 12.3406C8.0098 13.6858 8.01011 15.8727 9.32454 17.2208L9.41658 17.3152C10.0735 17.9889 10.9389 18.3267 11.803 18.3267C12.2834 18.3267 12.7564 18.2116 13.1946 18.0049M19.6377 1.76134L13.1946 18.0049M1.98787 33.8398C2.75573 33.0522 9.98328 26.4045 15.8978 21.4887C14.9244 20.355 14.0225 19.1914 13.1946 18.0049M1.98787 33.8398L13.1946 18.0049M35.7746 18.471L35.822 18.4292C35.839 18.4143 35.8515 18.3999 35.86 18.3891C35.8621 18.3866 35.864 18.384 35.8658 18.3817C35.8687 18.3779 35.8712 18.3744 35.8732 18.3716C36.1177 18.1264 36.4308 18.0019 36.7536 18.0019C37.1077 18.0019 37.4874 18.1506 37.807 18.4784C38.3223 19.0069 38.3223 19.868 37.807 20.3966L27.4925 30.9755C26.9803 31.4995 26.1513 31.5004 25.6398 30.9758L25.5464 30.88C25.0324 30.3514 25.0324 29.4899 25.5464 28.9614L35.7746 18.471ZM17.8857 23.6735L17.8858 23.6736C18.0896 23.8826 18.296 24.0881 18.508 24.2965C13.7461 30.3308 7.27487 37.7339 6.53053 38.499C5.67848 39.3697 4.299 39.3694 3.44879 38.499C2.59497 37.6232 2.59497 36.1957 3.44879 35.32C4.19194 34.5578 11.4025 27.9275 17.2858 23.044C17.4834 23.2553 17.6832 23.4645 17.8837 23.6715L17.8842 23.6719L17.8857 23.6735ZM29.2425 12.0255L29.2427 12.0257C30.9472 13.7723 32.4754 15.6189 33.7962 17.5214L24.6964 26.8545C22.8468 25.5032 21.0498 23.9385 19.3468 22.1934C17.6407 20.442 16.1125 18.5968 14.7932 16.6959L23.893 7.36279C25.7455 8.71552 27.5411 10.2789 29.2425 12.0255ZM10.878 15.8338L10.878 15.8338L10.8761 15.8319L10.7823 15.7374C10.7821 15.7371 10.7819 15.7369 10.7817 15.7367C10.2686 15.2097 10.2688 14.3475 10.7823 13.8208L21.0986 3.24162L21.0986 3.2416C21.345 2.98886 21.6628 2.85948 21.9913 2.85948C22.3446 2.85948 22.723 3.00917 23.0432 3.3376C23.5585 3.86611 23.5585 4.72725 23.0432 5.25575L22.1431 6.17886L22.1431 6.17895L12.7535 15.7997L12.7534 15.7997C12.7383 15.8153 12.7274 15.8298 12.7202 15.8401C12.7189 15.842 12.7176 15.8438 12.7165 15.8454C12.2037 16.3586 11.3829 16.3544 10.878 15.8338Z" fill="#D9D9D9" stroke="#D9D9D9" stroke-width="0.5"/>
</svg>
