<svg width="42" height="38" viewBox="0 0 42 38" fill="none" xmlns="http://www.w3.org/2000/svg">
<path d="M25.8558 9.16301L25.856 9.16322C26.0316 9.3366 26.1569 9.46082 26.2425 9.56801C26.3274 9.67435 26.3477 9.73342 26.3507 9.77125C26.3534 9.805 26.3457 9.86453 26.2697 9.97896C26.1921 10.0956 26.0611 10.2433 25.8558 10.4464C25.4455 10.8521 25.4502 11.5094 25.8642 11.9103L26.0381 11.7307L25.8642 11.9103C26.0688 12.1084 26.3372 12.2061 26.5997 12.2061C26.8677 12.2061 27.1385 12.1064 27.345 11.9023L27.3451 11.9022C28.3575 10.9012 28.5804 10.0232 28.3947 9.27604C28.22 8.57284 27.6934 8.05182 27.3609 7.72283L27.3452 7.7073L27.3449 7.70708C27.1694 7.53376 27.0442 7.40944 26.9586 7.30217C26.8736 7.19574 26.8533 7.1365 26.8503 7.09849C26.8476 7.06459 26.8553 7.00501 26.9313 6.89074C27.0088 6.7742 27.1398 6.62672 27.345 6.42406L27.345 6.42401C27.7555 6.01837 27.7508 5.36089 27.3368 4.95999C26.9261 4.56229 26.2636 4.56363 25.856 4.968C24.8434 5.96835 24.6206 6.84634 24.8063 7.59366C24.9811 8.29755 25.5083 8.81917 25.8409 9.1482L25.8558 9.16301ZM9.85583 9.16301L9.85604 9.16322C10.0316 9.3366 10.1569 9.46082 10.2425 9.56801C10.3274 9.67435 10.3477 9.73342 10.3507 9.77125C10.3534 9.805 10.3457 9.86453 10.2697 9.97896C10.1921 10.0956 10.0611 10.2433 9.85584 10.4464C9.44553 10.8521 9.45019 11.5095 9.86419 11.9103L9.8642 11.9103C10.0688 12.1084 10.3372 12.2061 10.5997 12.2061C10.8677 12.2061 11.1385 12.1064 11.345 11.9023L11.3451 11.9022C12.3575 10.9012 12.5804 10.0232 12.3947 9.27604C12.22 8.57284 11.6934 8.05183 11.3609 7.72284L11.3452 7.7073L11.3449 7.70708C11.1694 7.53376 11.0442 7.40944 10.9586 7.30217C10.8736 7.19574 10.8533 7.1365 10.8503 7.09849C10.8476 7.06459 10.8553 7.00501 10.9313 6.89074C11.0088 6.7742 11.1398 6.62672 11.345 6.42406L11.345 6.42401C11.7555 6.01837 11.7508 5.36089 11.3368 4.95999C10.9261 4.56229 10.2636 4.56363 9.85599 4.968C8.84343 5.96835 8.62063 6.84634 8.80627 7.59366C8.98111 8.29755 9.5083 8.81916 9.84085 9.14819L9.85583 9.16301ZM18.1997 11.8528C17.8173 11.6352 17.6861 11.1578 17.9069 10.7822C19.0616 8.82646 18.5777 8.00616 17.9077 6.87052L18.1997 11.8528ZM17.685 6.98513L17.6916 6.99618C17.6916 6.99621 17.6916 6.99624 17.6916 6.99627C18.0322 7.57359 18.2887 8.01566 18.3428 8.54358C18.3959 9.06172 18.2548 9.70131 17.6916 10.6551L17.6914 10.6555C17.3984 11.1539 17.5751 11.7851 18.0761 12.0701L18.078 12.0712C18.2434 12.1634 18.4232 12.2061 18.5997 12.2061C18.959 12.2061 19.3127 12.025 19.5094 11.6919L19.5094 11.6918C20.3392 10.2853 20.5386 9.16556 20.4181 8.22457C20.2996 7.29926 19.8737 6.57714 19.5173 5.97293L19.5094 5.95955L19.5093 5.95938C19.1688 5.38294 18.9123 4.94082 18.8582 4.41271C18.8051 3.89434 18.9462 3.25436 19.5094 2.30061L19.5094 2.30058C19.803 1.80306 19.6255 1.17175 19.123 0.887006C18.625 0.604525 17.9846 0.770929 17.692 1.26314L17.6916 1.26386C16.8618 2.67041 16.6624 3.79055 16.7829 4.73171C16.9016 5.65838 17.3284 6.38111 17.685 6.98513ZM38.8326 20.6617L38.8327 20.6617C39.2817 21.4653 39.2492 22.4351 38.7318 23.262C37.6598 24.9608 35.6973 25.9581 32.3776 26.3623C33.3132 23.8638 34.0524 21.1226 34.4695 18.5422C36.6617 18.7505 38.1994 19.5278 38.8326 20.6617ZM27.5904 31.25L27.5903 31.2502C27.2336 31.7463 26.6036 32.0539 25.8957 32.0539H9.70529C8.99736 32.0539 8.36734 31.7463 8.01068 31.2502L8.0105 31.2499C6.71219 29.4487 5.47918 26.7085 4.543 23.7562C3.63863 20.9043 3.01791 17.8756 2.87963 15.3365H32.7214C32.5831 17.8756 31.962 20.9043 31.0574 23.7562C30.121 26.7085 28.888 29.4487 27.5904 31.25ZM40.674 19.6665C40.0611 18.5693 38.4805 16.8806 34.7359 16.507C34.8089 15.7443 34.8497 15.0044 34.8497 14.3039C34.8497 13.729 34.3761 13.2713 33.7997 13.2713H1.79969C1.22523 13.2713 0.749695 13.7287 0.749695 14.3039C0.749695 17.1441 1.3859 20.6338 2.39322 23.9288C3.40012 27.2224 4.78524 30.3456 6.29764 32.4453L6.29772 32.4455C7.05728 33.4988 8.33403 34.1191 9.70529 34.1191H25.8957C27.267 34.1191 28.5437 33.4988 29.3033 32.4455L29.3033 32.4454C30.0802 31.3672 30.819 30.0166 31.4919 28.5223C36.0675 28.1582 38.9161 26.8871 40.5183 24.3467L40.5187 24.3461C41.4327 22.8879 41.4944 21.1359 40.674 19.6666L40.4557 19.7885L40.674 19.6665ZM30.5997 37.2496C31.1758 37.2496 31.6497 36.7938 31.6497 36.217C31.6497 35.6421 31.1761 35.1844 30.5997 35.1844H4.99969C4.42523 35.1844 3.94969 35.6418 3.94969 36.217C3.94969 36.7941 4.42556 37.2496 4.99969 37.2496H30.5997Z" fill="#D9D9D9" stroke="#D9D9D9" stroke-width="0.5"/>
</svg>
