<svg width="40" height="39" viewBox="0 0 40 39" fill="none" xmlns="http://www.w3.org/2000/svg">
<path d="M21.01 28.0983H38.24C38.6102 28.0983 38.9449 28.3074 39.1215 28.6372C39.2969 28.9646 39.2937 29.3645 39.1095 29.6877L21.01 28.0983ZM21.01 28.0983V24.3265V1.80478C21.01 1.61233 20.951 1.44709 20.8807 1.30961L20.8795 1.30732C20.8586 1.2676 20.8339 1.2316 20.8175 1.20773C20.8153 1.20458 20.8133 1.20165 20.8114 1.19894L20.811 1.19827C20.7383 1.09248 20.6477 1.001 20.5407 0.928514C20.5365 0.923767 20.5316 0.918542 20.5262 0.913234C20.5096 0.897045 20.4856 0.877192 20.453 0.860859C20.4342 0.851317 20.4162 0.845109 20.4004 0.841023C20.281 0.785933 20.1465 0.750427 20 0.750427C19.9615 0.750427 19.9307 0.757777 19.9184 0.760842C19.8882 0.764499 19.864 0.771166 19.8515 0.774706L19.8412 0.777653L19.8355 0.779289C19.7116 0.800859 19.5958 0.843572 19.4891 0.911429C19.4658 0.91866 19.4283 0.933257 19.3915 0.961579L19.3915 0.961551L19.3882 0.964181C19.1284 1.17115 16.0121 3.67615 12.5742 7.76107C9.13835 11.8437 5.36731 17.5209 3.81946 24.0728L3.81929 24.0735C3.74703 24.3836 3.8105 24.7135 4.0003 24.9693C4.18881 25.2235 4.48176 25.3809 4.79997 25.3809H18.99V28.0983H1.75997C1.38976 28.0983 1.05505 28.3074 0.878387 28.6372C0.702475 28.9656 0.708468 29.3654 0.890174 29.6873L0.89041 29.6877L3.23729 33.8269L3.23733 33.827C4.78257 36.5505 7.60985 38.2504 10.6231 38.2504H29.3768C32.3915 38.2504 35.2189 36.5505 36.7626 33.8269C36.7626 33.8269 36.7627 33.8269 36.7627 33.8269L39.1092 29.6883L21.01 28.0983ZM3.53124 30.207H36.4687L35.0251 32.7534C33.8374 34.8478 31.67 36.1417 29.3768 36.1417H10.6231C8.32989 36.1417 6.16254 34.8478 4.97489 32.7534C4.97488 32.7534 4.97488 32.7534 4.97487 32.7534L3.53124 30.207ZM18.99 23.2722H6.12488C8.72651 14.3119 15.7749 7.02619 18.99 4.0616V23.2722Z" fill="#D9D9D9" stroke="#D9D9D9" stroke-width="0.5"/>
</svg>
