<svg width="41" height="28" viewBox="0 0 41 28" fill="none" xmlns="http://www.w3.org/2000/svg">
<path d="M8.16138 21.1226L8.16137 21.1225C8.11787 21.1279 8.06963 21.132 8.0202 21.132C7.65206 21.132 7.30573 20.9376 7.12121 20.6126C6.91138 20.244 6.95546 19.7889 7.23067 19.466L8.16138 21.1226ZM8.16138 21.1226L8.16564 21.122L13.2215 20.4137M8.16138 21.1226L13.2215 20.4137M13.2215 20.4137C13.0639 23.0863 10.7952 25.2203 8.0202 25.2203C5.14278 25.2203 2.8102 22.9264 2.8102 20.1173C2.8102 17.3083 5.14278 15.0144 8.0202 15.0144C8.91219 15.0144 9.74599 15.2462 10.4828 15.6399L7.23097 19.4657L13.2215 20.4137ZM33.9561 19.7947L32.3466 15.0608C32.5566 15.032 32.7668 15.0144 32.9802 15.0144C35.8576 15.0144 38.1902 17.3083 38.1902 20.1173C38.1902 22.9264 35.8576 25.2203 32.9802 25.2203C30.1028 25.2203 27.7702 22.9264 27.7702 20.1173C27.7702 18.231 28.8335 16.5913 30.4023 15.7095L32.004 20.4392L32.0042 20.4398C32.1496 20.8655 32.5525 21.132 32.9802 21.132C33.0867 21.132 33.1947 21.1159 33.3017 21.0823L33.3049 21.0813C33.8412 20.9047 34.1401 20.3317 33.9561 19.7947ZM31.7831 2.71461L31.7836 2.71444C32.3132 2.51718 32.5858 1.93327 32.3838 1.40447L32.3835 1.40367C32.1793 0.874493 31.5865 0.624585 31.0598 0.81327L31.0598 0.813258L31.0573 0.814157L26.9233 2.34357L26.9225 2.34388C26.4124 2.53467 26.1345 3.08786 26.308 3.60838L26.3084 3.60939L27.0276 5.73708L16.9198 9.45391L15.6903 5.83792H17.3802C17.9441 5.83792 18.4102 5.38805 18.4102 4.82321C18.4102 4.25838 17.9441 3.80851 17.3802 3.80851H11.1402C10.5763 3.80851 10.1102 4.25838 10.1102 4.82321C10.1102 5.38805 10.5763 5.83792 11.1402 5.83792H13.5195L15.0324 10.2875C15.0317 10.2884 15.0309 10.2892 15.0302 10.2901C15.0299 10.2905 15.0296 10.2909 15.0292 10.2913L11.831 14.0522C10.7221 13.378 9.4187 12.985 8.0202 12.985C4.01646 12.985 0.750198 16.1801 0.750198 20.1173C0.750198 24.0545 4.01646 27.2497 8.0202 27.2497C12.0218 27.2497 15.2867 24.058 15.2902 20.1237L19.0856 19.5926L19.0856 19.5926L19.0913 19.5917C19.1165 19.5876 19.1372 19.5809 19.1517 19.5755C19.1564 19.5738 19.1608 19.572 19.1647 19.5704C19.1661 19.5703 19.1677 19.5701 19.1694 19.57L19.1707 19.5698C19.1854 19.5684 19.219 19.5652 19.256 19.5546L19.256 19.5547L19.2643 19.552C19.3141 19.5357 19.3501 19.511 19.3644 19.5012L19.3648 19.5009L19.3698 19.4974L19.3703 19.4971C19.4258 19.4725 19.4834 19.441 19.5394 19.399C19.5941 19.3607 19.639 19.3189 19.6772 19.2789L19.685 19.2731L19.686 19.2723C19.6982 19.2633 19.7315 19.2386 19.7609 19.2011L19.7628 19.1986L27.9579 8.48599L29.7408 13.7527C27.3622 14.9232 25.7102 17.3248 25.7102 20.1173C25.7102 24.0545 28.9765 27.2497 32.9802 27.2497C36.9839 27.2497 40.2502 24.0545 40.2502 20.1173C40.2502 16.1801 36.9839 12.985 32.9802 12.985C32.5362 12.985 32.1023 13.0276 31.6818 13.1037L29.28 6.03835L29.2795 6.03664L28.5715 3.90322L31.7831 2.71461ZM19.1847 19.5616C19.1847 19.5616 19.1828 19.5624 19.1806 19.5633L19.181 19.5633C19.1837 19.562 19.1847 19.5616 19.1847 19.5616ZM19.2945 16.4383L17.5752 11.3789L25.3526 8.51921L19.2945 16.4383ZM13.412 15.3563L15.8002 12.5459L17.5704 17.7552L14.9722 18.1189C14.6636 17.0813 14.131 16.1395 13.412 15.3563ZM12.0656 16.9377C12.4237 17.3756 12.7055 17.8707 12.9018 18.4094L10.5343 18.7404L12.0656 16.9377Z" fill="#D9D9D9" stroke="#D9D9D9" stroke-width="0.5"/>
</svg>
