<svg width="41" height="41" viewBox="0 0 41 41" fill="none" xmlns="http://www.w3.org/2000/svg">
<path d="M15.291 15.2375L15.2894 15.2377C15.0577 15.272 14.8238 15.2919 14.5882 15.2919C13.5474 15.2919 12.5273 14.9324 11.608 14.249L15.291 15.2375ZM15.291 15.2375C16.8596 14.9947 18.1482 13.9476 18.9698 12.4861C19.7914 11.0244 20.1554 9.13558 19.8777 7.16654C19.5628 4.92557 18.4897 2.96022 16.9135 1.79179C15.7861 0.952831 14.5123 0.606325 13.2305 0.803143L13.2302 0.803189M15.291 15.2375L13.2302 0.803189M13.2302 0.803189C11.6616 1.04598 10.3731 2.09301 9.55147 3.55459M13.2302 0.803189L9.55147 3.55459M3.89202 13.3735C6.43165 12.6741 9.25823 14.641 10.25 17.6307C10.8093 19.3149 10.72 21.0692 9.98358 22.445C9.43109 23.4775 8.54006 24.2131 7.46925 24.5072C7.46919 24.5072 7.46913 24.5072 7.46907 24.5072L7.40287 24.2662C7.07995 24.3551 6.75079 24.3972 6.41851 24.3972L3.89202 13.3735ZM3.89202 13.3735C2.82121 13.6675 1.93018 14.4032 1.37769 15.4356C0.641288 16.8114 0.55201 18.5658 1.11125 20.25L3.89202 13.3735ZM9.55147 3.55459C8.72982 5.01621 8.36583 6.90507 8.64355 8.87411M9.55147 3.55459L8.64355 8.87411M8.64355 8.87411C8.95843 11.115 10.0315 13.0804 11.6077 14.2488L8.64355 8.87411ZM34.0766 22.5197L34.0763 22.5197C33.4225 22.3405 33.042 21.862 32.8346 21.4731L32.8343 21.4726C32.3826 20.6307 32.3232 19.4362 32.7062 18.278C33.2964 16.4984 34.7694 15.2919 36.0523 15.2919C36.2247 15.2919 36.3976 15.3153 36.5653 15.3611C37.2189 15.5403 37.5993 16.0188 37.8067 16.4075L37.807 16.4081C38.2587 17.25 38.3181 18.443 37.9349 19.6029C37.6025 20.6051 36.9831 21.439 36.2683 21.9684C35.5512 22.4996 34.7629 22.7086 34.0766 22.5197ZM37.1091 13.3734L37.109 13.3734C34.565 12.6759 31.7415 14.6408 30.7512 17.6309C30.192 19.315 30.2813 21.0693 31.0177 22.445C31.5702 23.4775 32.4613 24.2132 33.5322 24.5072C33.8777 24.6024 34.2292 24.6472 34.5828 24.6472C36.8122 24.6472 39.0317 22.8394 39.8901 20.2498C40.4493 18.5657 40.36 16.8114 39.6236 15.4356C39.0711 14.4031 38.18 13.6674 37.1091 13.3734ZM8.16695 21.4726L8.16665 21.4731C7.95927 21.862 7.57875 22.3405 6.92496 22.5197C6.23984 22.7048 5.45137 22.4952 4.73393 21.9648C4.01869 21.436 3.39859 20.604 3.06629 19.6028C2.6832 18.4429 2.74256 17.25 3.19432 16.4081L3.19462 16.4075C3.402 16.0187 3.78252 15.5402 4.43631 15.361L4.43687 15.3608C5.11902 15.1722 5.90676 15.3805 6.62494 15.9117C7.3406 16.4411 7.96194 17.2751 8.29503 18.278C8.67805 19.4362 8.61871 20.6307 8.16695 21.4726ZM27.4533 2.83999L27.4545 2.84017C28.4116 2.98758 29.227 3.67702 29.7582 4.71993C30.2888 5.76169 30.5224 7.13538 30.3182 8.58927C30.0789 10.287 29.2629 11.7803 28.1657 12.5963C27.4721 13.111 26.7335 13.3117 26.0276 13.2006L26.0268 13.2005C25.0697 13.0531 24.2543 12.3636 23.7231 11.3207C23.1924 10.279 22.9588 8.90528 23.1631 7.45138C23.4024 5.7535 24.2185 4.26019 25.3158 3.44422C25.8877 3.01892 26.4886 2.81033 27.0776 2.81033C27.2033 2.81033 27.329 2.82022 27.4533 2.83999ZM25.7102 15.2375L25.7119 15.2377C25.9436 15.272 26.1775 15.2919 26.413 15.2919C27.454 15.2919 28.4741 14.9323 29.3936 14.2488C30.9697 13.0804 32.0428 11.115 32.3577 8.87411C32.6354 6.90507 32.2715 5.01621 31.4498 3.55459C30.6282 2.09301 29.3396 1.04598 27.771 0.803189V0.803184L27.7695 0.802962C26.4907 0.612953 25.2157 0.953963 24.0878 1.79179C22.5116 2.96023 21.4384 4.92557 21.1235 7.16654C20.8458 9.13558 21.2098 11.0244 22.0315 12.4861C22.8531 13.9476 24.1416 14.9947 25.7102 15.2375ZM13.5468 2.84018L13.548 2.83998C13.6722 2.82022 13.7979 2.81033 13.9237 2.81033C14.5123 2.81033 15.1132 3.02022 15.6856 3.44427C16.7828 4.26025 17.5989 5.75354 17.8382 7.45138C18.0424 8.90528 17.8088 10.279 17.2782 11.3207C16.747 12.3636 15.9316 13.0531 14.9745 13.2005L14.9736 13.2006C14.2696 13.3116 13.5294 13.1096 12.8354 12.5962C11.7383 11.7801 10.9224 10.287 10.6831 8.58927C10.4788 7.13538 10.7124 5.76169 11.2431 4.71993C11.7743 3.67702 12.5897 2.98758 13.5468 2.84018ZM26.7406 38.1903C26.0734 38.1903 25.5924 38.1122 25.1917 37.9925C24.7884 37.8721 24.458 37.7074 24.0819 37.5194C23.2601 37.1085 22.3016 36.6303 20.5006 36.6303C18.6996 36.6303 17.7412 37.1085 16.9194 37.5194C16.5433 37.7074 16.2129 37.8721 15.8096 37.9925C15.4088 38.1122 14.9279 38.1903 14.2606 38.1903C12.9434 38.1903 12.0469 37.896 11.4759 37.325C10.905 36.754 10.6106 35.8576 10.6106 34.5403C10.6106 32.3522 11.7438 28.2981 13.5767 24.7835C14.4913 23.0299 15.5714 21.4277 16.7562 20.2674C17.9432 19.1048 19.2093 18.4103 20.5006 18.4103C21.792 18.4103 23.0581 19.1048 24.2451 20.2674C25.4298 21.4277 26.51 23.0299 27.4246 24.7835C29.2575 28.2981 30.3906 32.3522 30.3906 34.5403C30.3906 35.8576 30.0963 36.754 29.5253 37.325C28.9543 37.896 28.0579 38.1903 26.7406 38.1903ZM20.5006 16.3503C18.6415 16.3503 16.9645 17.2231 15.5057 18.5714C14.0475 19.9192 12.7912 21.7562 11.7648 23.7255C9.71575 27.6574 8.55063 32.1824 8.55063 34.5403C8.55063 36.3686 9.03413 37.8067 10.0142 38.7868C10.9943 39.7668 12.4324 40.2503 14.2606 40.2503C16.0616 40.2503 17.0201 39.7722 17.8419 39.3613C18.218 39.1732 18.5484 39.0086 18.9517 38.8881C19.3524 38.7685 19.8334 38.6903 20.5006 38.6903C21.1679 38.6903 21.6488 38.7685 22.0496 38.8881C22.4529 39.0086 22.7833 39.1732 23.1594 39.3613C23.9812 39.7722 24.9396 40.2503 26.7406 40.2503C28.5689 40.2503 30.007 39.7668 30.9871 38.7868C31.9671 37.8067 32.4506 36.3686 32.4506 34.5403C32.4506 32.1824 31.2855 27.6574 29.2364 23.7255C28.2101 21.7562 26.9538 19.9192 25.4956 18.5714C24.0368 17.2231 22.3597 16.3503 20.5006 16.3503Z" fill="#8B8985" stroke="#8B8985" stroke-width="0.5"/>
</svg>
