<svg width="40" height="39" viewBox="0 0 40 39" fill="none" xmlns="http://www.w3.org/2000/svg">
<path d="M20.9059 1.33825L20.9057 1.33773C20.7276 0.962989 20.3533 0.787231 20.0004 0.787231C19.6475 0.787231 19.2733 0.962989 19.0952 1.33773L19.095 1.33825L2.65237 36.1423H1.76043C1.18784 36.1423 0.750435 36.6285 0.750435 37.1967C0.750435 37.7649 1.18784 38.251 1.76043 38.251H3.28044H10.546H29.4548H36.7204H38.2404C38.8112 38.251 39.2504 37.7652 39.2504 37.1967C39.2504 36.6282 38.8112 36.1423 38.2404 36.1423H37.3485L20.9059 1.33825ZM35.0962 36.1423H30.095L20.9146 15.8352C20.8996 15.8009 20.8801 15.7758 20.8648 15.7592C20.8645 15.7589 20.8642 15.7586 20.8639 15.7583C20.6952 15.4539 20.3836 15.2293 20.0004 15.2293C19.6163 15.2293 19.3021 15.4551 19.1335 15.7618C19.1323 15.7631 19.131 15.7645 19.1298 15.766C19.1158 15.7823 19.0993 15.8052 19.0862 15.8352L9.90589 36.1423H4.90472L20.0004 4.18916L35.0962 36.1423ZM21.0104 36.1423V20.9876L27.8606 36.1423H21.0104ZM18.9904 36.1423H12.1403L18.9904 20.9876V36.1423Z" fill="#D9D9D9" stroke="#D9D9D9" stroke-width="0.5"/>
</svg>
