<svg width="42" height="41" viewBox="0 0 42 41" fill="none" xmlns="http://www.w3.org/2000/svg">
<path d="M9.32756 24.8267L9.32596 24.8251C9.28434 24.7853 9.26223 24.7336 9.26223 24.6749C9.26223 24.6187 9.28381 24.5659 9.32755 24.5232L10.8826 23.007L13.8592 25.9092C13.8594 25.9094 13.8596 25.9096 13.8598 25.9098C14.0644 26.111 14.3332 26.2104 14.5994 26.2104C14.8662 26.2104 15.1346 26.1107 15.3404 25.9101C15.7532 25.5075 15.7526 24.8531 15.3408 24.4496L15.3404 24.4491L12.3719 21.5549L14.0826 19.887L15.4592 21.2292C15.4594 21.2294 15.4596 21.2296 15.4598 21.2298C15.6644 21.431 15.9332 21.5304 16.1994 21.5304C16.4662 21.5304 16.7346 21.4307 16.9404 21.2301C17.3532 20.8275 17.3526 20.1731 16.9408 19.7696L16.9404 19.7691L15.5719 18.4349L17.2826 16.767L20.2592 19.6692C20.2593 19.6693 20.2595 19.6694 20.2596 19.6696C20.4642 19.8709 20.7331 19.9704 20.9994 19.9704C21.2662 19.9704 21.5346 19.8707 21.7404 19.6701C22.153 19.2677 22.153 18.6115 21.7404 18.2091L18.7719 15.3149L20.4826 13.647L21.8592 14.9892C21.8593 14.9893 21.8594 14.9894 21.8595 14.9895C22.0641 15.1909 22.333 15.2904 22.5994 15.2904C22.8662 15.2904 23.1346 15.1907 23.3404 14.9901C23.753 14.5877 23.753 13.9315 23.3404 13.5291L21.9719 12.1949L23.6826 10.527L26.6592 13.4292C26.6593 13.4293 26.6595 13.4294 26.6596 13.4296C26.8642 13.6309 27.1331 13.7304 27.3994 13.7304C27.6662 13.7304 27.9346 13.6307 28.1403 13.4301C28.553 13.0278 28.553 12.3715 28.1403 11.9691L25.1719 9.07495L26.8826 7.40703L34.4285 14.7643L16.8825 31.8716C16.7988 31.9532 16.6369 31.9532 16.5532 31.8716L15.3244 30.6735L10.5564 26.0247L9.32756 24.8267ZM11.0026 33.444L11.0025 33.444L10.9993 33.4473C10.9224 33.525 10.7827 33.5338 10.6873 33.4376L10.6873 33.4376L10.6844 33.4347L7.71475 30.5394L7.71478 30.5394L7.71147 30.5363C7.66981 30.4971 7.64943 30.4482 7.64943 30.3986C7.64943 30.353 7.66677 30.3021 7.7229 30.2483L7.72442 30.2468L9.81549 28.2066L13.0956 31.4047L11.0026 33.444ZM32.9016 2.31218L32.9017 2.31233L34.8753 5.51936L31.3995 8.90827L27.622 5.22374L27.622 5.22371L26.5403 4.16915C26.1313 3.77028 25.4692 3.77028 25.0601 4.16915L25.0596 4.16959C24.6479 4.57312 24.6472 5.2275 25.0601 5.63007L25.3933 5.95495L7.8473 23.0623C7.4062 23.4924 7.16223 24.0652 7.16223 24.6749C7.16223 25.286 7.40604 25.8591 7.84756 26.2878C7.84759 26.2879 7.84763 26.2879 7.84767 26.2879L8.32618 26.7545L6.25506 28.7753C5.80235 29.2035 5.54943 29.7798 5.54943 30.3986C5.54943 31.015 5.80178 31.5917 6.24557 32.0111L6.9819 32.729L1.06031 38.4889L1.0601 38.4891C0.647298 38.8916 0.647947 39.5457 1.05759 39.9492L1.0585 39.9501C1.26426 40.1507 1.53266 40.2504 1.79943 40.2504C2.06581 40.2504 2.33433 40.1509 2.53875 39.9516L8.47122 34.1811L9.1913 34.8831C9.19185 34.8837 9.1924 34.8842 9.19294 34.8848C9.63239 35.3281 10.2208 35.5704 10.8474 35.5704H10.849C11.4752 35.5704 12.0636 35.3269 12.4937 34.8944C12.4942 34.8939 12.4947 34.8933 12.4953 34.8928L14.585 32.8568L15.0725 33.3322C15.0726 33.3322 15.0726 33.3323 15.0727 33.3323C15.5122 33.7626 16.0969 33.9979 16.7178 33.9979C17.3374 33.9979 17.9219 33.7624 18.3628 33.3326L35.9178 16.2163L36.2592 16.5492C36.2595 16.5494 36.2597 16.5497 36.26 16.55C36.4646 16.7511 36.7333 16.8504 36.9994 16.8504C37.2662 16.8504 37.5346 16.7507 37.7403 16.5501C38.153 16.1477 38.153 15.4915 37.7403 15.0891L36.6587 14.0346L36.6587 14.0346L32.8888 10.3604L36.3624 6.97359L39.66 8.90271C39.6604 8.90291 39.6607 8.90312 39.6611 8.90333C39.8298 9.00381 40.0165 9.05039 40.1994 9.05039C40.5106 9.05039 40.8196 8.91496 41.0252 8.65534C41.3557 8.24521 41.318 7.65734 40.9403 7.28915L34.5404 1.04915C34.1644 0.682628 33.5714 0.650718 33.157 0.966701C32.7374 1.28534 32.6256 1.86288 32.9016 2.31218Z" fill="#8B8985" stroke="#8B8985" stroke-width="0.5"/>
</svg>
