<svg width="29" height="42" viewBox="0 0 29 42" fill="none" xmlns="http://www.w3.org/2000/svg">
<mask id="path-2-outside-1" maskUnits="userSpaceOnUse" x="0.047699" y="-0.000610352" width="29" height="42" fill="black">
<rect fill="white" x="0.047699" y="-0.000610352" width="29" height="42"/>
<path fill-rule="evenodd" clip-rule="evenodd" d="M24.6245 39.2618C24.4292 39.4026 24.183 39.449 23.9448 39.3898C23.6716 39.3178 23.3651 39.2282 23.0252 39.1306C21.1892 38.601 18.4145 37.7994 14.4995 37.7994C10.5861 37.7994 7.81148 38.601 5.97548 39.1306C5.6356 39.2282 5.32907 39.3178 5.05589 39.3898C4.81607 39.4522 4.56989 39.4026 4.37613 39.2618C4.26336 39.1786 4.07278 38.993 4.05372 38.665L3.73448 33.073C6.01678 32.2682 9.59983 31.3994 14.4995 31.3994C19.4008 31.3994 22.9839 32.2682 25.2662 33.073L24.947 38.6634C24.9279 38.993 24.7373 39.1786 24.6245 39.2618ZM4.17601 7.39939H5.76425V12.7626C5.74995 12.7466 5.72772 12.7418 5.71184 12.7274C5.55142 12.5754 5.37036 12.4522 5.16866 12.3642C5.14007 12.353 5.10989 12.345 5.07972 12.3338C4.86372 12.2538 4.63501 12.1994 4.39519 12.1994H4.17601V7.39939ZM7.35248 4.19939H8.94072V4.99939V15.4922C8.38166 15.1642 7.8496 14.7898 7.35248 14.3706V6.59939V4.19939ZM12.1172 5.79939V16.7226C12.0791 16.713 12.041 16.705 12.0028 16.6954C11.52 16.5866 11.0483 16.449 10.5957 16.2762C10.5734 16.2682 10.5512 16.2602 10.529 16.2522V5.79939H12.1172ZM13.7054 2.59939H15.2937V4.99939V16.9418C15.192 16.9482 15.0935 16.9594 14.9887 16.9642C14.6631 16.9802 14.3375 16.9802 14.012 16.9642C13.9071 16.9594 13.8087 16.9482 13.7054 16.9418V4.99939V2.59939ZM18.4701 5.79939V16.2522C18.4495 16.2602 18.4272 16.2682 18.405 16.2762C17.9524 16.449 17.4807 16.5866 16.9978 16.6954C16.9597 16.705 16.9216 16.713 16.8819 16.7226V5.79939H18.4701ZM20.0584 4.19939H21.6466V6.59939V14.3706C21.1495 14.7898 20.619 15.1642 20.0584 15.4922V4.99939V4.19939ZM24.8231 7.39939V12.1994H24.6055C24.3657 12.1994 24.137 12.2538 23.921 12.3338C23.8908 12.345 23.8606 12.353 23.832 12.3642C23.6303 12.4522 23.4492 12.5754 23.2872 12.7274C23.2714 12.7418 23.2507 12.7466 23.2348 12.7626V7.39939H24.8231ZM2.63542 13.7994H3.38189H4.39519C4.50795 13.7994 4.60484 13.8442 4.67154 13.9258L4.67472 13.929C4.75731 14.0314 4.88754 14.1834 5.04478 14.3562C5.18454 14.513 5.34654 14.6778 5.52284 14.8538L5.57048 14.9018C6.93795 16.2634 9.35207 18.0378 12.878 18.481C13.3417 18.5402 13.8865 18.5994 14.4995 18.5994C15.1142 18.5994 15.659 18.5402 16.1227 18.481C19.6454 18.0378 22.058 16.265 23.427 14.905C23.4477 14.8858 23.4651 14.8682 23.4826 14.849C23.6573 14.6746 23.8177 14.5114 23.9559 14.3562C24.1115 14.1834 24.2402 14.0346 24.3244 13.9322C24.326 13.9306 24.3291 13.9274 24.3307 13.9242C24.3942 13.8442 24.4927 13.7994 24.6055 13.7994H25.6172H26.3652L25.3599 31.4122C22.9426 30.6106 19.3135 29.7994 14.4995 29.7994C9.68719 29.7994 6.05807 30.6106 3.64078 31.4122L2.63542 13.7994ZM27.5199 12.7018C27.2324 12.3946 26.8306 12.2234 26.4113 12.2106V6.59939C26.4113 6.15779 26.0571 5.79939 25.6172 5.79939H23.2348V3.39939C23.2348 2.95779 22.8807 2.59939 22.4407 2.59939H19.2642C18.8259 2.59939 18.4701 2.95779 18.4701 3.39939V4.19939H16.8819V1.79939C16.8819 1.35779 16.5277 0.99939 16.0878 0.99939H12.9113C12.473 0.99939 12.1172 1.35779 12.1172 1.79939V4.19939H10.529V3.39939C10.529 2.95779 10.1748 2.59939 9.73483 2.59939H6.55836C6.12001 2.59939 5.76425 2.95779 5.76425 3.39939V5.79939H3.38189C2.94354 5.79939 2.58778 6.15779 2.58778 6.59939V12.2106C2.17007 12.2234 1.76825 12.3946 1.48078 12.7018C1.18219 13.0218 1.02495 13.4554 1.05036 13.8922L2.46866 38.7594C2.50995 39.4778 2.86572 40.1322 3.44225 40.5546C3.8536 40.8586 4.34436 41.0154 4.84625 41.0154C5.04795 41.0154 5.25125 40.9898 5.45295 40.937C5.73725 40.8634 6.05807 40.7706 6.41384 40.6682C8.16407 40.1626 10.8085 39.3994 14.4995 39.3994C18.1922 39.3994 20.8366 40.1626 22.5868 40.6682C22.9426 40.7706 23.2634 40.8634 23.5477 40.937C24.2465 41.1194 24.9803 40.9802 25.5584 40.5546C26.135 40.1322 26.4907 39.4778 26.532 38.7578L27.9503 13.8922C27.9757 13.4554 27.8185 13.0218 27.5199 12.7018Z"/>
</mask>
<path fill-rule="evenodd" clip-rule="evenodd" d="M24.6245 39.2618C24.4292 39.4026 24.183 39.449 23.9448 39.3898C23.6716 39.3178 23.3651 39.2282 23.0252 39.1306C21.1892 38.601 18.4145 37.7994 14.4995 37.7994C10.5861 37.7994 7.81148 38.601 5.97548 39.1306C5.6356 39.2282 5.32907 39.3178 5.05589 39.3898C4.81607 39.4522 4.56989 39.4026 4.37613 39.2618C4.26336 39.1786 4.07278 38.993 4.05372 38.665L3.73448 33.073C6.01678 32.2682 9.59983 31.3994 14.4995 31.3994C19.4008 31.3994 22.9839 32.2682 25.2662 33.073L24.947 38.6634C24.9279 38.993 24.7373 39.1786 24.6245 39.2618ZM4.17601 7.39939H5.76425V12.7626C5.74995 12.7466 5.72772 12.7418 5.71184 12.7274C5.55142 12.5754 5.37036 12.4522 5.16866 12.3642C5.14007 12.353 5.10989 12.345 5.07972 12.3338C4.86372 12.2538 4.63501 12.1994 4.39519 12.1994H4.17601V7.39939ZM7.35248 4.19939H8.94072V4.99939V15.4922C8.38166 15.1642 7.8496 14.7898 7.35248 14.3706V6.59939V4.19939ZM12.1172 5.79939V16.7226C12.0791 16.713 12.041 16.705 12.0028 16.6954C11.52 16.5866 11.0483 16.449 10.5957 16.2762C10.5734 16.2682 10.5512 16.2602 10.529 16.2522V5.79939H12.1172ZM13.7054 2.59939H15.2937V4.99939V16.9418C15.192 16.9482 15.0935 16.9594 14.9887 16.9642C14.6631 16.9802 14.3375 16.9802 14.012 16.9642C13.9071 16.9594 13.8087 16.9482 13.7054 16.9418V4.99939V2.59939ZM18.4701 5.79939V16.2522C18.4495 16.2602 18.4272 16.2682 18.405 16.2762C17.9524 16.449 17.4807 16.5866 16.9978 16.6954C16.9597 16.705 16.9216 16.713 16.8819 16.7226V5.79939H18.4701ZM20.0584 4.19939H21.6466V6.59939V14.3706C21.1495 14.7898 20.619 15.1642 20.0584 15.4922V4.99939V4.19939ZM24.8231 7.39939V12.1994H24.6055C24.3657 12.1994 24.137 12.2538 23.921 12.3338C23.8908 12.345 23.8606 12.353 23.832 12.3642C23.6303 12.4522 23.4492 12.5754 23.2872 12.7274C23.2714 12.7418 23.2507 12.7466 23.2348 12.7626V7.39939H24.8231ZM2.63542 13.7994H3.38189H4.39519C4.50795 13.7994 4.60484 13.8442 4.67154 13.9258L4.67472 13.929C4.75731 14.0314 4.88754 14.1834 5.04478 14.3562C5.18454 14.513 5.34654 14.6778 5.52284 14.8538L5.57048 14.9018C6.93795 16.2634 9.35207 18.0378 12.878 18.481C13.3417 18.5402 13.8865 18.5994 14.4995 18.5994C15.1142 18.5994 15.659 18.5402 16.1227 18.481C19.6454 18.0378 22.058 16.265 23.427 14.905C23.4477 14.8858 23.4651 14.8682 23.4826 14.849C23.6573 14.6746 23.8177 14.5114 23.9559 14.3562C24.1115 14.1834 24.2402 14.0346 24.3244 13.9322C24.326 13.9306 24.3291 13.9274 24.3307 13.9242C24.3942 13.8442 24.4927 13.7994 24.6055 13.7994H25.6172H26.3652L25.3599 31.4122C22.9426 30.6106 19.3135 29.7994 14.4995 29.7994C9.68719 29.7994 6.05807 30.6106 3.64078 31.4122L2.63542 13.7994ZM27.5199 12.7018C27.2324 12.3946 26.8306 12.2234 26.4113 12.2106V6.59939C26.4113 6.15779 26.0571 5.79939 25.6172 5.79939H23.2348V3.39939C23.2348 2.95779 22.8807 2.59939 22.4407 2.59939H19.2642C18.8259 2.59939 18.4701 2.95779 18.4701 3.39939V4.19939H16.8819V1.79939C16.8819 1.35779 16.5277 0.99939 16.0878 0.99939H12.9113C12.473 0.99939 12.1172 1.35779 12.1172 1.79939V4.19939H10.529V3.39939C10.529 2.95779 10.1748 2.59939 9.73483 2.59939H6.55836C6.12001 2.59939 5.76425 2.95779 5.76425 3.39939V5.79939H3.38189C2.94354 5.79939 2.58778 6.15779 2.58778 6.59939V12.2106C2.17007 12.2234 1.76825 12.3946 1.48078 12.7018C1.18219 13.0218 1.02495 13.4554 1.05036 13.8922L2.46866 38.7594C2.50995 39.4778 2.86572 40.1322 3.44225 40.5546C3.8536 40.8586 4.34436 41.0154 4.84625 41.0154C5.04795 41.0154 5.25125 40.9898 5.45295 40.937C5.73725 40.8634 6.05807 40.7706 6.41384 40.6682C8.16407 40.1626 10.8085 39.3994 14.4995 39.3994C18.1922 39.3994 20.8366 40.1626 22.5868 40.6682C22.9426 40.7706 23.2634 40.8634 23.5477 40.937C24.2465 41.1194 24.9803 40.9802 25.5584 40.5546C26.135 40.1322 26.4907 39.4778 26.532 38.7578L27.9503 13.8922C27.9757 13.4554 27.8185 13.0218 27.5199 12.7018Z" fill="#8B8985"/>
<path fill-rule="evenodd" clip-rule="evenodd" d="M24.6245 39.2618C24.4292 39.4026 24.183 39.449 23.9448 39.3898C23.6716 39.3178 23.3651 39.2282 23.0252 39.1306C21.1892 38.601 18.4145 37.7994 14.4995 37.7994C10.5861 37.7994 7.81148 38.601 5.97548 39.1306C5.6356 39.2282 5.32907 39.3178 5.05589 39.3898C4.81607 39.4522 4.56989 39.4026 4.37613 39.2618C4.26336 39.1786 4.07278 38.993 4.05372 38.665L3.73448 33.073C6.01678 32.2682 9.59983 31.3994 14.4995 31.3994C19.4008 31.3994 22.9839 32.2682 25.2662 33.073L24.947 38.6634C24.9279 38.993 24.7373 39.1786 24.6245 39.2618ZM4.17601 7.39939H5.76425V12.7626C5.74995 12.7466 5.72772 12.7418 5.71184 12.7274C5.55142 12.5754 5.37036 12.4522 5.16866 12.3642C5.14007 12.353 5.10989 12.345 5.07972 12.3338C4.86372 12.2538 4.63501 12.1994 4.39519 12.1994H4.17601V7.39939ZM7.35248 4.19939H8.94072V4.99939V15.4922C8.38166 15.1642 7.8496 14.7898 7.35248 14.3706V6.59939V4.19939ZM12.1172 5.79939V16.7226C12.0791 16.713 12.041 16.705 12.0028 16.6954C11.52 16.5866 11.0483 16.449 10.5957 16.2762C10.5734 16.2682 10.5512 16.2602 10.529 16.2522V5.79939H12.1172ZM13.7054 2.59939H15.2937V4.99939V16.9418C15.192 16.9482 15.0935 16.9594 14.9887 16.9642C14.6631 16.9802 14.3375 16.9802 14.012 16.9642C13.9071 16.9594 13.8087 16.9482 13.7054 16.9418V4.99939V2.59939ZM18.4701 5.79939V16.2522C18.4495 16.2602 18.4272 16.2682 18.405 16.2762C17.9524 16.449 17.4807 16.5866 16.9978 16.6954C16.9597 16.705 16.9216 16.713 16.8819 16.7226V5.79939H18.4701ZM20.0584 4.19939H21.6466V6.59939V14.3706C21.1495 14.7898 20.619 15.1642 20.0584 15.4922V4.99939V4.19939ZM24.8231 7.39939V12.1994H24.6055C24.3657 12.1994 24.137 12.2538 23.921 12.3338C23.8908 12.345 23.8606 12.353 23.832 12.3642C23.6303 12.4522 23.4492 12.5754 23.2872 12.7274C23.2714 12.7418 23.2507 12.7466 23.2348 12.7626V7.39939H24.8231ZM2.63542 13.7994H3.38189H4.39519C4.50795 13.7994 4.60484 13.8442 4.67154 13.9258L4.67472 13.929C4.75731 14.0314 4.88754 14.1834 5.04478 14.3562C5.18454 14.513 5.34654 14.6778 5.52284 14.8538L5.57048 14.9018C6.93795 16.2634 9.35207 18.0378 12.878 18.481C13.3417 18.5402 13.8865 18.5994 14.4995 18.5994C15.1142 18.5994 15.659 18.5402 16.1227 18.481C19.6454 18.0378 22.058 16.265 23.427 14.905C23.4477 14.8858 23.4651 14.8682 23.4826 14.849C23.6573 14.6746 23.8177 14.5114 23.9559 14.3562C24.1115 14.1834 24.2402 14.0346 24.3244 13.9322C24.326 13.9306 24.3291 13.9274 24.3307 13.9242C24.3942 13.8442 24.4927 13.7994 24.6055 13.7994H25.6172H26.3652L25.3599 31.4122C22.9426 30.6106 19.3135 29.7994 14.4995 29.7994C9.68719 29.7994 6.05807 30.6106 3.64078 31.4122L2.63542 13.7994ZM27.5199 12.7018C27.2324 12.3946 26.8306 12.2234 26.4113 12.2106V6.59939C26.4113 6.15779 26.0571 5.79939 25.6172 5.79939H23.2348V3.39939C23.2348 2.95779 22.8807 2.59939 22.4407 2.59939H19.2642C18.8259 2.59939 18.4701 2.95779 18.4701 3.39939V4.19939H16.8819V1.79939C16.8819 1.35779 16.5277 0.99939 16.0878 0.99939H12.9113C12.473 0.99939 12.1172 1.35779 12.1172 1.79939V4.19939H10.529V3.39939C10.529 2.95779 10.1748 2.59939 9.73483 2.59939H6.55836C6.12001 2.59939 5.76425 2.95779 5.76425 3.39939V5.79939H3.38189C2.94354 5.79939 2.58778 6.15779 2.58778 6.59939V12.2106C2.17007 12.2234 1.76825 12.3946 1.48078 12.7018C1.18219 13.0218 1.02495 13.4554 1.05036 13.8922L2.46866 38.7594C2.50995 39.4778 2.86572 40.1322 3.44225 40.5546C3.8536 40.8586 4.34436 41.0154 4.84625 41.0154C5.04795 41.0154 5.25125 40.9898 5.45295 40.937C5.73725 40.8634 6.05807 40.7706 6.41384 40.6682C8.16407 40.1626 10.8085 39.3994 14.4995 39.3994C18.1922 39.3994 20.8366 40.1626 22.5868 40.6682C22.9426 40.7706 23.2634 40.8634 23.5477 40.937C24.2465 41.1194 24.9803 40.9802 25.5584 40.5546C26.135 40.1322 26.4907 39.4778 26.532 38.7578L27.9503 13.8922C27.9757 13.4554 27.8185 13.0218 27.5199 12.7018Z" stroke="#8B8985" mask="url(#path-2-outside-1)"/>
</svg>
