<svg width="41" height="22" viewBox="0 0 41 22" fill="none" xmlns="http://www.w3.org/2000/svg">
<path d="M7.82689 6.70927L7.82701 6.70914C9.62143 4.72565 11.3926 2.78834 14.2607 2.78834C16.8286 2.78834 18.1114 3.62937 18.7616 4.46857C19.419 5.31715 19.4677 6.21212 19.4707 6.3867C19.4719 6.9513 19.9342 7.40373 20.5007 7.40373C21.066 7.40373 21.5307 6.95045 21.5307 6.38449C21.5307 6.32941 21.5429 5.43038 22.1877 4.55032C22.8218 3.68479 24.1045 2.78834 26.7407 2.78834C29.6072 2.78834 31.3784 4.72561 33.1728 6.70914L33.173 6.70927L33.1906 6.72879C33.901 7.51286 34.6387 8.32707 35.4567 8.9928C34.8441 9.15389 34.2239 9.33931 33.58 9.53185L33.5206 9.54959L33.5205 9.54961L33.5086 9.55319C30.5755 10.4311 26.9403 11.5191 20.5007 11.5191C14.0595 11.5191 10.4244 10.4311 7.49126 9.55319L7.47931 9.54961L7.47923 9.54959L7.41987 9.53184C6.77592 9.3393 6.15579 9.15389 5.54318 8.9928C6.36116 8.32707 7.09882 7.51288 7.80918 6.72882L7.82689 6.70927ZM9.45451 15.1724L9.45457 15.1725L9.47151 15.1906C12.1018 17.993 15.1585 21.2499 20.5007 21.2499C25.8413 21.2499 28.8981 17.993 31.5283 15.1906L31.5453 15.1725L31.5453 15.1724C33.9611 12.5965 35.9639 10.4806 39.2207 10.4806C39.7861 10.4806 40.2507 10.0274 40.2507 9.46142C40.2507 8.89547 39.7861 8.44219 39.2207 8.44219C38.3826 8.44219 37.6461 8.10577 36.9186 7.54513C36.186 6.98053 35.4829 6.20511 34.7073 5.34898C34.7073 5.34897 34.7073 5.34896 34.7073 5.34896L34.6837 5.32291C32.7803 3.22121 30.5422 0.749878 26.7407 0.749878C23.2902 0.749878 21.46 2.04534 20.5005 3.41511C19.5399 2.04547 17.71 0.749878 14.2607 0.749878C10.4577 0.749878 8.21956 3.22121 6.31615 5.32294L6.29258 5.34896C5.517 6.20509 4.81383 6.98053 4.08137 7.54515C3.35403 8.10581 2.61797 8.44219 1.7807 8.44219C1.21347 8.44219 0.750702 8.89579 0.750702 9.46142C0.750702 10.027 1.21347 10.4806 1.7807 10.4806C5.03593 10.4806 7.03869 12.5965 9.45451 15.1724ZM30.0356 13.7858C27.4882 16.5002 24.9299 19.2114 20.5007 19.2114C16.0699 19.2114 13.5117 16.5002 10.9643 13.7858C10.4763 13.2655 9.98011 12.7427 9.46762 12.2366C12.1301 12.9321 15.5068 13.5576 20.5007 13.5576C25.4932 13.5576 28.8698 12.9321 31.5322 12.2366C31.0197 12.7427 30.5235 13.2655 30.0356 13.7858Z" fill="#D9D9D9" stroke="#D9D9D9" stroke-width="0.5"/>
</svg>
