<svg width="80" height="80" viewBox="0 0 80 80" fill="none" xmlns="http://www.w3.org/2000/svg">
<path d="M58.5446 10.5V21.4556H69.5V10.5H58.5446ZM67.4937 19.4492H60.5509V12.5063H67.4937V19.4492Z" fill="#FFA949"/>
<path d="M58.5446 69.5H69.5V58.5445H58.5446V69.5ZM60.5509 60.5508H67.4937V67.4937H60.5509V60.5508Z" fill="#FFA949"/>
<path d="M10.5 69.5H21.4554V58.5445H10.5V69.5ZM12.5063 60.5508H19.4491V67.4937H12.5063V60.5508Z" fill="#FFA949"/>
<path d="M10.5 21.4556H21.4554V10.5H10.5V21.4556ZM12.5063 12.5063H19.4491V19.4492H12.5063V12.5063Z" fill="#FFA949"/>
<path d="M34.5224 45.4778H45.4777V34.5223H34.5224V45.4778ZM36.5287 36.5286H43.4714V43.4715H36.5287V36.5286Z" fill="#FFA949"/>
<path d="M21.121 14.9741H20.1178V16.9805H21.121V14.9741Z" fill="#FFA949"/>
<path d="M56.8919 16.9805H54.9043V14.9741H56.8919V16.9805ZM52.9171 16.9805H50.93V14.9741H52.9171V16.9805ZM48.9428 16.9805H46.9557V14.9741H48.9428V16.9805ZM44.9681 16.9805H42.9809V14.9741H44.9681V16.9805ZM40.9938 16.9805H39.0067V14.9741H40.9938V16.9805ZM37.0186 16.9805H35.0315V14.9741H37.0186V16.9805ZM33.0443 16.9805H31.0572V14.9741H33.0443V16.9805ZM29.07 16.9805H27.0824V14.9741H29.07V16.9805ZM25.0953 16.9805H23.1081V14.9741H25.0953V16.9805Z" fill="#FFA949"/>
<path d="M59.8822 14.9741H58.879V16.9805H59.8822V14.9741Z" fill="#FFA949"/>
<path d="M21.121 63.0186H20.1178V65.0249H21.121V63.0186Z" fill="#FFA949"/>
<path d="M56.8919 65.0249H54.9043V63.0186H56.8919V65.0249ZM52.9171 65.0249H50.93V63.0186H52.9171V65.0249ZM48.9428 65.0249H46.9557V63.0186H48.9428V65.0249ZM44.9681 65.0249H42.9809V63.0186H44.9681V65.0249ZM40.9938 65.0249H39.0067V63.0186H40.9938V65.0249ZM37.0186 65.0249H35.0315V63.0186H37.0186V65.0249ZM33.0443 65.0249H31.0572V63.0186H33.0443V65.0249ZM29.07 65.0249H27.0824V63.0186H29.07V65.0249ZM25.0953 65.0249H23.1081V63.0186H25.0953V65.0249Z" fill="#FFA949"/>
<path d="M59.8822 63.0186H58.879V65.0249H59.8822V63.0186Z" fill="#FFA949"/>
<path d="M65.0251 20.117H63.0188V21.1202H65.0251V20.117Z" fill="#FFA949"/>
<path d="M65.0251 56.8916H63.0188V54.9044H65.0251V56.8916ZM65.0251 52.9172H63.0188V50.93H65.0251V52.9172ZM65.0251 48.9424H63.0188V46.9553H65.0251V48.9424ZM65.0251 44.9681H63.0188V42.9805H65.0251V44.9681ZM65.0251 40.9933H63.0188V39.0061H65.0251V40.9933ZM65.0251 37.0185H63.0188V35.0313H65.0251V37.0185ZM65.0251 33.0441H63.0188V31.057H65.0251V33.0441ZM65.0251 29.0693H63.0188V27.0822H65.0251V29.0693ZM65.0251 25.0945H63.0188V23.1074H65.0251V25.0945Z" fill="#FFA949"/>
<path d="M65.0251 58.8788H63.0188V59.882H65.0251V58.8788Z" fill="#FFA949"/>
<path d="M16.9813 20.117H14.975V21.1202H16.9813V20.117Z" fill="#FFA949"/>
<path d="M16.9813 56.8916H14.975V54.9044H16.9813V56.8916ZM16.9813 52.9172H14.975V50.93H16.9813V52.9172ZM16.9813 48.9424H14.975V46.9553H16.9813V48.9424ZM16.9813 44.9681H14.975V42.9805H16.9813V44.9681ZM16.9813 40.9933H14.975V39.0061H16.9813V40.9933ZM16.9813 37.0185H14.975V35.0313H16.9813V37.0185ZM16.9813 33.0441H14.975V31.057H16.9813V33.0441ZM16.9813 29.0693H14.975V27.0822H16.9813V29.0693ZM16.9813 25.0945H14.975V23.1074H16.9813V25.0945Z" fill="#FFA949"/>
<path d="M16.9813 58.8788H14.975V59.882H16.9813V58.8788Z" fill="#FFA949"/>
</svg>
