<svg width="128" height="92" viewBox="0 0 128 92" fill="none" xmlns="http://www.w3.org/2000/svg">
<path d="M120 76V6C120 4.4 119.4 2.8 118.2 1.8C117 0.799999 115.6 0 114 0H14C12.4 0 10.8 0.599999 9.8 1.8C8.6 2.8 8 4.4 8 6V76H0V82C0 84.6 1 87.2 3 89C4.8 91 7.4 92 10 92H118C120.6 92 123.2 91 125 89C126.8 87.2 128 84.6 128 82V76H120ZM12 6C12 5.4 12.2 5 12.6 4.6C13 4.2 13.4 4 14 4H114C114.6 4 115 4.2 115.4 4.6C115.8 5 116 5.4 116 6V76H79.2L75.2 80H52.8L48.8 76H12V6ZM124 82C124 83.6 123.4 85.2 122.2 86.2C121.2 87.4 119.6 88 118 88H10C8.4 88 6.8 87.4 5.8 86.2C4.6 85.2 4 83.6 4 82V80H47.2L51.2 84H76.8L80.8 80H124V82Z" fill="#FFA949"/>
<path fill-rule="evenodd" clip-rule="evenodd" d="M66 12H62V8H66V12Z" fill="#FFA949"/>
</svg>
