<svg width="296" height="296" viewBox="0 0 296 296" fill="none" xmlns="http://www.w3.org/2000/svg">
<g opacity="0.1">
<path d="M263.451 47.25V96.55H312.75V47.25H263.451ZM303.721 87.5214H272.479V56.2786H303.721V87.5214Z" fill="black"/>
<path d="M263.451 312.75H312.75V263.45H263.451V312.75ZM272.479 272.479H303.721V303.722H272.479V272.479Z" fill="black"/>
<path d="M47.25 312.75H96.5492V263.45H47.25V312.75ZM56.2784 272.479H87.5208V303.722H56.2784V272.479Z" fill="black"/>
<path d="M47.25 96.55H96.5492V47.25H47.25V96.55ZM56.2784 56.2786H87.5208V87.5214H56.2784V56.2786Z" fill="black"/>
<path d="M155.351 204.65H204.65V155.35H155.351V204.65ZM164.379 164.379H195.621V195.622H164.379V164.379Z" fill="black"/>
<path d="M95.0446 67.3839H90.5304V76.4124H95.0446V67.3839Z" fill="black"/>
<path d="M256.013 76.4123H247.069V67.3838H256.013V76.4123ZM238.127 76.4123H229.185V67.3838H238.127V76.4123ZM220.243 76.4123H211.301V67.3838H220.243V76.4123ZM202.357 76.4123H193.414V67.3838H202.357V76.4123ZM184.472 76.4123H175.53V67.3838H184.472V76.4123ZM166.584 76.4123H157.642V67.3838H166.584V76.4123ZM148.7 76.4123H139.757V67.3838H148.7V76.4123ZM130.815 76.4123H121.871V67.3838H130.815V76.4123ZM112.929 76.4123H103.987V67.3838H112.929V76.4123Z" fill="black"/>
<path d="M269.47 67.3838H264.956V76.4123H269.47V67.3838Z" fill="black"/>
<path d="M95.0446 283.584H90.5304V292.612H95.0446V283.584Z" fill="black"/>
<path d="M256.013 292.612H247.069V283.584H256.013V292.612ZM238.127 292.612H229.185V283.584H238.127V292.612ZM220.243 292.612H211.301V283.584H220.243V292.612ZM202.357 292.612H193.414V283.584H202.357V292.612ZM184.472 292.612H175.53V283.584H184.472V292.612ZM166.584 292.612H157.642V283.584H166.584V292.612ZM148.7 292.612H139.757V283.584H148.7V292.612ZM130.815 292.612H121.871V283.584H130.815V292.612ZM112.929 292.612H103.987V283.584H112.929V292.612Z" fill="black"/>
<path d="M269.47 283.584H264.956V292.612H269.47V283.584Z" fill="black"/>
<path d="M292.613 90.5269H283.584V95.0411H292.613V90.5269Z" fill="black"/>
<path d="M292.613 256.012H283.584V247.07H292.613V256.012ZM292.613 238.128H283.584V229.186H292.613V238.128ZM292.613 220.241H283.584V211.299H292.613V220.241ZM292.613 202.357H283.584V193.412H292.613V202.357ZM292.613 184.47H283.584V175.528H292.613V184.47ZM292.613 166.584H283.584V157.641H292.613V166.584ZM292.613 148.699H283.584V139.757H292.613V148.699ZM292.613 130.812H283.584V121.87H292.613V130.812ZM292.613 112.926H283.584V103.983H292.613V112.926Z" fill="black"/>
<path d="M292.613 264.955H283.584V269.469H292.613V264.955Z" fill="black"/>
<path d="M76.4158 90.5269H67.3874V95.0411H76.4158V90.5269Z" fill="black"/>
<path d="M76.4158 256.012H67.3874V247.07H76.4158V256.012ZM76.4158 238.128H67.3874V229.186H76.4158V238.128ZM76.4158 220.241H67.3874V211.299H76.4158V220.241ZM76.4158 202.357H67.3874V193.412H76.4158V202.357ZM76.4158 184.47H67.3874V175.528H76.4158V184.47ZM76.4158 166.584H67.3874V157.641H76.4158V166.584ZM76.4158 148.699H67.3874V139.757H76.4158V148.699ZM76.4158 130.812H67.3874V121.87H76.4158V130.812ZM76.4158 112.926H67.3874V103.983H76.4158V112.926Z" fill="black"/>
<path d="M76.4158 264.955H67.3874V269.469H76.4158V264.955Z" fill="black"/>
</g>
</svg>
