<svg width="225" height="225" viewBox="0 0 225 225" fill="none" xmlns="http://www.w3.org/2000/svg">
<g opacity="0.1">
<path d="M191.25 154.688V56.25C191.25 54 190.406 51.75 188.719 50.3437C187.031 48.9375 185.062 47.8125 182.812 47.8125H42.1875C39.9375 47.8125 37.6875 48.6562 36.2812 50.3437C34.5938 51.75 33.75 54 33.75 56.25V154.688H22.5V163.125C22.5 166.781 23.9062 170.438 26.7188 172.969C29.25 175.781 32.9062 177.188 36.5625 177.188H188.438C192.094 177.188 195.75 175.781 198.281 172.969C200.812 170.438 202.5 166.781 202.5 163.125V154.688H191.25ZM39.375 56.25C39.375 55.4062 39.6562 54.8438 40.2188 54.2813C40.7812 53.7188 41.3438 53.4375 42.1875 53.4375H182.812C183.656 53.4375 184.219 53.7188 184.781 54.2813C185.344 54.8438 185.625 55.4062 185.625 56.25V154.688H133.875L128.25 160.312H96.75L91.125 154.688H39.375V56.25ZM196.875 163.125C196.875 165.375 196.031 167.625 194.344 169.031C192.938 170.719 190.688 171.562 188.438 171.562H36.5625C34.3125 171.562 32.0625 170.719 30.6562 169.031C28.9688 167.625 28.125 165.375 28.125 163.125V160.312H88.875L94.5 165.938H130.5L136.125 160.312H196.875V163.125Z" fill="black"/>
<path fill-rule="evenodd" clip-rule="evenodd" d="M115.312 64.6875H109.688V59.0625H115.312V64.6875Z" fill="black"/>
</g>
</svg>
