<svg width="225" height="225" viewBox="0 0 225 225" fill="none" xmlns="http://www.w3.org/2000/svg">
<g opacity="0.1">
<path d="M149.062 73.125H154.688V53.4375C154.688 45.5625 148.5 39.375 140.625 39.375H84.375C76.5 39.375 70.3125 45.5625 70.3125 53.4375V151.875H75.9375V53.4375C75.9375 48.6562 79.5938 45 84.375 45H140.625C145.406 45 149.062 48.6562 149.062 53.4375V73.125Z" fill="black"/>
<path d="M149.062 73.125V171.562C149.062 176.344 145.406 180 140.625 180H84.375C79.5938 180 75.9375 176.344 75.9375 171.562V151.875H70.3125V171.562C70.3125 179.438 76.5 185.625 84.375 185.625H140.625C148.5 185.625 154.688 179.438 154.688 171.562V73.125H149.062Z" fill="black"/>
<path fill-rule="evenodd" clip-rule="evenodd" d="M126.562 174.375H98.4375V168.75H126.562V174.375Z" fill="black"/>
<path fill-rule="evenodd" clip-rule="evenodd" d="M115.312 56.25H109.688V50.625H115.312V56.25Z" fill="black"/>
</g>
</svg>
