<svg width="18" height="18" viewBox="0 0 18 18" fill="none" xmlns="http://www.w3.org/2000/svg">
<path fill-rule="evenodd" clip-rule="evenodd" d="M5.01191 0.13141C5.01191 0.13141 6.97627 0 9 0C11.0237 0 12.9882 0.13141 12.9882 0.13141C14.2822 0.13141 15.5233 0.64592 16.4383 1.56175C17.3533 2.47759 17.8674 3.71972 17.8674 5.01491C17.8674 5.01491 18 6.97788 18 8.99997C18 11.0221 17.8674 12.985 17.8674 12.985C17.8674 14.2802 17.3533 15.5223 16.4383 16.4382C15.5233 17.354 14.2822 17.8685 12.9882 17.8685C12.9882 17.8685 11.0471 18 9.03485 18C6.99939 18 5.01191 17.8685 5.01191 17.8685C3.71786 17.8685 2.47681 17.354 1.56178 16.4382C0.646748 15.5223 0.132689 14.2802 0.132689 12.985C0.132689 12.985 0 11.0221 0 8.99997C0 6.97788 0.132689 5.01491 0.132689 5.01491C0.132689 3.71972 0.646748 2.47759 1.56178 1.56175C2.47681 0.64592 3.71786 0.13141 5.01191 0.13141ZM5.0747 1.75172C5.0747 1.75172 7.01283 1.66115 9 1.66115C10.9872 1.66115 12.9253 1.75172 12.9253 1.75172C13.7824 1.75172 14.6044 2.0925 15.2104 2.69909C15.8165 3.30568 16.157 4.12839 16.157 4.98624C16.157 4.98624 16.2465 6.94896 16.2465 8.9713C16.2465 11.0127 16.157 13.0137 16.157 13.0137C16.157 13.8715 15.8165 14.6943 15.2104 15.3008C14.6044 15.9074 13.7824 16.2482 12.9253 16.2482C12.9253 16.2482 10.9872 16.3388 9 16.3388C7.01283 16.3388 5.0747 16.2482 5.0747 16.2482C4.2176 16.2482 3.39561 15.9074 2.78955 15.3008C2.18349 14.6943 1.84301 13.8715 1.84301 13.0137C1.84301 13.0137 1.75354 11.051 1.75354 9.02864C1.75354 6.98721 1.84301 4.98624 1.84301 4.98624C1.84301 4.12839 2.18349 3.30568 2.78955 2.69909C3.39561 2.0925 4.2176 1.75172 5.0747 1.75172ZM9 4.35151C9.91857 4.35151 10.8165 4.62414 11.5803 5.13492C12.344 5.6457 12.9393 6.37169 13.2908 7.22108C13.6424 8.07048 13.7343 9.00513 13.5551 9.90684C13.3759 10.8085 12.9336 11.6368 12.2841 12.2869C11.6345 12.937 10.807 13.3797 9.90607 13.5591C9.00515 13.7385 8.07132 13.6464 7.22267 13.2946C6.37402 12.9427 5.64867 12.3469 5.13834 11.5825C4.62801 10.8181 4.35562 9.91935 4.35562 8.99997C4.35562 7.76712 4.84494 6.58477 5.71593 5.71301C6.58692 4.84126 7.76823 4.35151 9 4.35151ZM9 6.00816C9.5912 6.00816 10.1691 6.18363 10.6607 6.51237C11.1523 6.84111 11.5354 7.30837 11.7616 7.85505C11.9879 8.40173 12.0471 9.00329 11.9317 9.58364C11.8164 10.164 11.5317 10.6971 11.1137 11.1155C10.6956 11.5339 10.163 11.8188 9.58316 11.9343C9.00332 12.0497 8.40229 11.9905 7.85609 11.764C7.30989 11.5376 6.84304 11.1541 6.51458 10.6621C6.18613 10.1701 6.01081 9.59169 6.01081 8.99997C6.01081 8.20649 6.32574 7.44551 6.88633 6.88444C7.44691 6.32337 8.20722 6.00816 9 6.00816ZM13.7778 3.10108C13.993 3.10108 14.2034 3.16495 14.3823 3.28462C14.5613 3.40428 14.7007 3.57436 14.7831 3.77335C14.8654 3.97235 14.887 4.19131 14.845 4.40256C14.803 4.61381 14.6994 4.80786 14.5472 4.96016C14.395 5.11246 14.2012 5.21618 13.9901 5.2582C13.779 5.30022 13.5603 5.27865 13.3614 5.19623C13.1626 5.1138 12.9927 4.97422 12.8731 4.79513C12.7536 4.61604 12.6898 4.40549 12.6898 4.1901C12.6898 3.90128 12.8044 3.62428 13.0085 3.42005C13.2125 3.21582 13.4893 3.10108 13.7778 3.10108Z" fill="#8B8985"/>
</svg>
