<svg width="20" height="11" viewBox="0 0 20 11" fill="none" xmlns="http://www.w3.org/2000/svg">
<path fill-rule="evenodd" clip-rule="evenodd" d="M0.000444131 0.890069C0.0122535 0.696757 0.0959171 0.493343 0.751004 0.493343C1.40609 0.493343 3.18473 0.480996 3.45701 0.477307C3.81462 0.501361 4.13954 0.715921 4.23152 1.03303C4.36941 1.37058 5.33095 3.36199 5.98404 4.35397C6.63714 5.34595 7.10369 5.45563 7.31468 5.39141C7.60517 5.37169 7.90722 4.68696 7.90722 3.10085C7.82847 1.42711 7.75353 0.972654 6.73327 0.773007C6.59356 0.761862 6.5953 0.694833 6.74076 0.535436C6.86214 0.391932 7.019 0.280156 7.19691 0.21039C7.3462 0.16132 7.5961 2.15325e-07 9.44793 2.15325e-07C11.2997 2.15325e-07 11.4803 0.279746 11.5956 0.517397C11.7108 0.755048 11.735 0.920457 11.717 1.62387C11.699 2.32728 11.6558 3.69835 11.6558 4.16683C11.6558 4.63532 11.6999 5.10605 12.0181 5.31404C12.2393 5.4388 12.3579 5.36599 12.4927 5.28285C12.6276 5.1997 13.4886 4.57535 14.6134 2.38245C15.3049 1.10102 15.1914 0.522287 15.8787 0.522287C16.566 0.522287 18.767 0.482197 19.2332 0.482197C19.6994 0.482197 20 0.608159 20 0.969367C20 1.33057 19.8382 1.84677 18.5247 3.5974C17.7907 4.60301 17.3723 4.95243 16.9005 5.71501C16.6 6.22584 16.7499 6.51608 17.0253 6.82028C17.8602 7.67115 18.1507 7.80833 18.8099 8.52594C19.4692 9.24354 19.9938 9.88601 19.9938 10.3098C19.9938 10.7335 19.7234 10.9152 19.1141 10.9432C18.5049 10.9712 16.5658 11.0053 16.2319 10.9993C15.898 10.9933 15.0171 10.777 14.1795 9.74241C13.2757 8.68974 12.9099 8.40976 12.5079 8.40976C12.1059 8.40976 11.8039 9.0993 11.7363 9.52537C11.6687 9.95144 11.7555 10.3957 11.5922 10.6526C11.4288 10.9095 11.2689 10.9493 10.4744 10.9493C9.67996 10.9493 8.68639 11.0117 7.62945 10.588C6.57252 10.1643 5.31124 9.32011 4.63079 8.5548C3.95034 7.78949 3.01066 6.71164 1.73076 4.49364C0.450863 2.27565 -0.0165214 1.16901 0.000444131 0.890069Z" fill="#8B8985"/>
</svg>
