<svg width="170" height="170" viewBox="0 0 170 170" fill="none" xmlns="http://www.w3.org/2000/svg">
<path d="M63.5712 37.526L66.603 36.303L74.7873 56.5912L71.7555 57.8143L63.5712 37.526Z" fill="white"/>
<path d="M63.5712 37.526L66.603 36.303L74.3504 55.5083L71.3186 56.7313L63.5712 37.526Z" fill="white"/>
<path d="M39.0791 106.193L37.4445 103.361L55.3791 93.0068L57.0137 95.8381L39.0791 106.193Z" fill="white"/>
<path d="M132.319 103.184L131.04 106.192L112.985 98.5169L114.264 95.5082L132.319 103.184Z" fill="white"/>
<path d="M102.925 37.941L105.934 39.22L98.0999 57.6474L95.0912 56.3684L102.925 37.941Z" fill="white"/>
<path d="M105.675 132.471L102.643 133.694L94.4592 113.406L97.491 112.183L105.675 132.471Z" fill="white"/>
<path d="M105.675 132.471L102.643 133.694L94.896 114.489L97.9279 113.266L105.675 132.471Z" fill="white"/>
<path d="M66.3208 132.056L63.3121 130.777L71.1458 112.35L74.1544 113.629L66.3208 132.056Z" fill="white"/>
<path d="M86.1326 43.951C85.6292 44.8227 84.3709 44.8227 83.8676 43.9509L75.0368 28.6556C74.5335 27.7838 75.1626 26.6941 76.1693 26.6941L93.8308 26.6941C94.8375 26.6941 95.4667 27.7838 94.9633 28.6556L86.1326 43.951Z" fill="white"/>
<path d="M170 85C170 131.944 131.944 170 85 170C38.0558 170 0 131.944 0 85C0 38.0558 38.0558 0 85 0C131.944 0 170 38.0558 170 85Z" fill="#F1CD5B"/>
<path fill-rule="evenodd" clip-rule="evenodd" d="M85 134.038C112.083 134.038 134.038 112.083 134.038 85C134.038 57.9168 112.083 35.9616 85 35.9616C57.9168 35.9616 35.9616 57.9168 35.9616 85C35.9616 112.083 57.9168 134.038 85 134.038ZM85 137.308C113.889 137.308 137.308 113.889 137.308 85C137.308 56.1113 113.889 32.6923 85 32.6923C56.1113 32.6923 32.6923 56.1113 32.6923 85C32.6923 113.889 56.1113 137.308 85 137.308Z" fill="white"/>
<path fill-rule="evenodd" clip-rule="evenodd" d="M85 114.423C101.25 114.423 114.423 101.25 114.423 85C114.423 68.7501 101.25 55.5769 85 55.5769C68.7501 55.5769 55.5769 68.7501 55.5769 85C55.5769 101.25 68.7501 114.423 85 114.423ZM85 117.692C103.055 117.692 117.692 103.055 117.692 85C117.692 66.9445 103.055 52.3077 85 52.3077C66.9445 52.3077 52.3077 66.9445 52.3077 85C52.3077 103.055 66.9445 117.692 85 117.692Z" fill="white"/>
<path d="M83.7389 52.3077H86.2616V116.461H83.7389V52.3077Z" fill="white"/>
<path d="M116.615 83.7373L116.615 86.26L53.386 86.26L53.386 83.7373L116.615 83.7373Z" fill="white"/>
<path d="M108.247 106.462L106.463 108.246L61.7537 63.5366L63.5375 61.7528L108.247 106.462Z" fill="white"/>
<path d="M106.463 61.7531L108.247 63.5368L63.5374 108.246L61.7536 106.463L106.463 61.7531Z" fill="white"/>
<path d="M131.135 64.4731L132.358 67.505L115.07 74.479L113.847 71.4471L131.135 64.4731Z" fill="white"/>
<path d="M56.1572 72.7213L54.5225 75.5525L38.3784 66.2317L40.013 63.4004L56.1572 72.7213Z" fill="white"/>
<path d="M39.6011 102.618L38.3781 99.5858L55.6661 92.6118L56.8891 95.6436L39.6011 102.618Z" fill="white"/>
<path d="M114.58 94.3695L116.214 91.5383L132.358 100.859L130.724 103.69L114.58 94.3695Z" fill="white"/>
<path d="M66.2993 39.2339L69.3312 38.0109L76.3051 55.2989L73.2733 56.522L66.2993 39.2339Z" fill="white"/>
<path d="M74.5474 114.212L77.3786 115.846L68.0578 131.99L65.2266 130.356L74.5474 114.212Z" fill="white"/>
<path d="M104.444 130.767L101.412 131.99L94.438 114.702L97.4698 113.479L104.444 130.767Z" fill="white"/>
<path d="M96.1957 55.7892L93.3644 54.1546L102.685 38.0105L105.517 39.6451L96.1957 55.7892Z" fill="white"/>
<path d="M95.3096 84.9987C95.3096 90.6924 90.694 95.308 85.0003 95.308C79.3067 95.308 74.6911 90.6924 74.6911 84.9987C74.6911 79.3051 79.3067 74.6895 85.0003 74.6895C90.694 74.6895 95.3096 79.3051 95.3096 84.9987Z" fill="#F1CD5B"/>
<path fill-rule="evenodd" clip-rule="evenodd" d="M85.0003 92.0388C88.8884 92.0388 92.0404 88.8868 92.0404 84.9987C92.0404 81.1106 88.8884 77.9587 85.0003 77.9587C81.1122 77.9587 77.9603 81.1106 77.9603 84.9987C77.9603 88.8868 81.1122 92.0388 85.0003 92.0388ZM85.0003 95.308C90.694 95.308 95.3096 90.6924 95.3096 84.9987C95.3096 79.3051 90.694 74.6895 85.0003 74.6895C79.3067 74.6895 74.6911 79.3051 74.6911 84.9987C74.6911 90.6924 79.3067 95.308 85.0003 95.308Z" fill="white"/>
<path d="M84.9995 45.8458L75.1052 28.5307L94.8939 28.5307L84.9995 45.8458Z" fill="white"/>
</svg>
