<svg width="270" height="271" viewBox="0 0 270 271" fill="none" xmlns="http://www.w3.org/2000/svg">
<path d="M138.944 264.779C137.841 264.814 136.737 264.837 135.634 264.841C133.923 264.852 132.218 264.816 130.517 264.756L130.255 270.461C133.236 270.565 136.219 270.577 139.183 270.483L138.944 264.779Z" fill="#F1CD5B"/>
<path d="M244.974 67.4587C246.447 69.8473 247.851 72.2815 249.169 74.7729L254.232 72.1513C252.84 69.5243 251.355 66.9447 249.788 64.4116L244.974 67.4587Z" fill="#E8D942"/>
<path d="M257.81 176.007C256.931 178.665 255.951 181.3 254.893 183.914L260.162 186.11C261.289 183.332 262.322 180.541 263.25 177.736L257.81 176.007Z" fill="#39DC36"/>
<path d="M263.006 154.07C262.601 156.852 262.098 159.617 261.51 162.365L267.075 163.614C267.7 160.689 268.235 157.758 268.658 154.829L263.006 154.07Z" fill="#39DC36"/>
<path d="M182.902 255.599C180.285 256.642 177.643 257.608 174.98 258.477L176.684 263.918C179.517 262.996 182.314 261.984 185.076 260.878L182.902 255.599Z" fill="#39DC36"/>
<path d="M203.047 245.477C200.658 246.949 198.224 248.353 195.732 249.671L198.354 254.734C200.981 253.343 203.561 251.857 206.094 250.29L203.047 245.477Z" fill="#39DC36"/>
<path d="M5.72051 139.444C5.68542 138.341 5.66305 137.237 5.65869 136.134C5.64821 134.423 5.68428 132.718 5.74363 131.017L0.0390539 130.755C-0.0651276 133.736 -0.0770833 136.719 0.0172329 139.683L5.72051 139.444Z" fill="#39DC36"/>
<path d="M6.99417 116.93C7.39872 114.148 7.90166 111.383 8.49022 108.635L2.9249 107.386C2.29988 110.31 1.76488 113.242 1.34232 116.17L6.99417 116.93Z" fill="#39DC36"/>
<path d="M73.782 249.414C71.3 248.083 68.8689 246.674 66.4866 245.193L63.4141 249.998C65.9277 251.565 68.4976 253.057 71.1364 254.472L73.782 249.414Z" fill="#39DC36"/>
<path d="M94.4925 258.31C91.8344 257.432 89.1999 256.451 86.5857 255.393L84.3898 260.663C87.1674 261.789 89.959 262.822 92.7638 263.75L94.4925 258.31Z" fill="#39DC36"/>
<path d="M66.9586 25.5257C69.3472 24.0533 71.7815 22.6495 74.2729 21.3312L71.6513 16.2681C69.0242 17.6597 66.4446 19.1453 63.9115 20.7121L66.9586 25.5257Z" fill="#39DC36"/>
<path d="M48.8827 38.9969C50.9876 37.1218 53.1466 35.3249 55.3564 33.5987L51.8939 29.0696C49.5501 30.8946 47.2602 32.7978 45.035 34.7836L48.8827 38.9969Z" fill="#39DC36"/>
<path d="M215.083 33.931C217.291 35.6674 219.433 37.4878 221.523 39.3731L225.387 35.1759C223.185 33.1882 220.911 31.2695 218.557 29.4228L215.083 33.931Z" fill="#39DC36"/>
<path d="M196.215 21.591C198.697 22.9221 201.129 24.331 203.511 25.8124L206.583 21.0068C204.07 19.4399 201.5 17.9484 198.861 16.5334L196.215 21.591Z" fill="#39DC36"/>
<path d="M193.197 250.977C190.694 252.235 188.144 253.411 185.545 254.511L187.718 259.79C190.459 258.631 193.157 257.38 195.818 256.04L193.197 250.977Z" fill="#ED3F22"/>
<path d="M172.26 259.335C169.565 260.148 166.846 260.87 164.113 261.506L165.336 267.075C168.238 266.404 171.118 265.638 173.962 264.781L172.26 259.335Z" fill="#ED3F22"/>
<path d="M150.192 263.937C147.408 264.268 144.607 264.517 141.794 264.662L142.029 270.363C145.007 270.207 147.973 269.946 150.922 269.592L150.192 263.937Z" fill="#ED3F22"/>
<path d="M127.657 264.628C124.847 264.471 122.048 264.227 119.258 263.887L118.501 269.533C121.466 269.897 124.43 270.161 127.395 270.333L127.657 264.628Z" fill="#ED3F22"/>
<path d="M105.348 261.38C102.618 260.732 99.9041 260.003 97.2134 259.172L95.4869 264.606C98.3497 265.484 101.224 266.261 104.101 266.94L105.348 261.38Z" fill="#ED3F22"/>
<path d="M243.152 206.42C241.615 208.773 240.005 211.077 238.315 213.323L242.834 216.802C244.618 214.434 246.321 211.996 247.957 209.493L243.152 206.42Z" fill="#ED3F22"/>
<path d="M253.795 186.549C252.684 189.141 251.498 191.69 250.234 194.188L255.292 196.833C256.63 194.2 257.885 191.501 259.064 188.745L253.795 186.549Z" fill="#ED3F22"/>
<path d="M212.375 239.134C210.121 240.817 207.814 242.422 205.457 243.951L208.506 248.76C210.998 247.145 213.445 245.443 215.832 243.661L212.375 239.134Z" fill="#ED3F22"/>
<path d="M229.199 224.127C228.033 225.366 226.843 226.59 225.625 227.79C224.839 228.563 224.039 229.324 223.231 230.076L227.077 234.295C229.249 232.274 231.358 230.166 233.401 227.993L229.199 224.127Z" fill="#ED3F22"/>
<path d="M6.56245 150.692C6.23231 147.908 5.98296 145.107 5.83771 142.294L0.136633 142.529C0.293304 145.507 0.554063 148.473 0.908353 151.422L6.56245 150.692Z" fill="#ED3F22"/>
<path d="M11.1649 172.76C10.3521 170.065 9.62984 167.346 8.9936 164.613L3.42468 165.836C4.09561 168.738 4.86226 171.618 5.7185 174.461L11.1649 172.76Z" fill="#ED3F22"/>
<path d="M3.55713 104.606L9.12245 105.855C9.77117 103.126 10.5003 100.412 11.3308 97.7211L5.89636 95.9946C5.01049 98.8477 4.23879 101.724 3.55713 104.606Z" fill="#ED3F22"/>
<path d="M19.5229 193.697C18.2653 191.193 17.0889 188.644 15.9884 186.045L10.7102 188.218C11.869 190.959 13.1196 193.657 14.4598 196.318L19.5229 193.697Z" fill="#ED3F22"/>
<path d="M46.3731 229.699C45.1335 228.533 43.91 227.343 42.7103 226.125C41.937 225.339 41.1755 224.539 40.4237 223.731L36.2051 227.577C38.2255 229.749 40.3338 231.858 42.5067 233.901L46.3731 229.699Z" fill="#ED3F22"/>
<path d="M83.9508 254.295C81.3586 253.184 78.8098 251.998 76.3119 250.734L73.6663 255.792C76.2998 257.131 78.9992 258.385 81.7549 259.565L83.9508 254.295Z" fill="#ED3F22"/>
<path d="M31.3657 212.875C29.6825 210.621 28.0775 208.314 26.5484 205.957L21.74 209.006C23.3551 211.498 25.0568 213.945 26.8388 216.333L31.3657 212.875Z" fill="#ED3F22"/>
<path d="M64.0796 243.652C61.7267 242.115 59.4225 240.505 57.1767 238.815L53.6981 243.333C56.0655 245.118 58.504 246.82 61.0071 248.457L64.0796 243.652Z" fill="#ED3F22"/>
<path d="M97.7395 11.6649C100.435 10.8521 103.154 10.1298 105.887 9.49358L104.663 3.92469C101.762 4.5956 98.8815 5.36225 96.0385 6.21849L97.7395 11.6649Z" fill="#ED3F22"/>
<path d="M76.8083 20.0252C79.3115 18.7675 81.8612 17.5912 84.4597 16.4907L82.2865 11.2125C79.5462 12.3713 76.848 13.6219 74.1867 14.9621L76.8083 20.0252Z" fill="#ED3F22"/>
<path d="M142.342 6.37162C145.153 6.5285 147.952 6.77321 150.741 7.11321L151.499 1.46666C148.533 1.10294 145.569 0.838895 142.604 0.667082L142.342 6.37162Z" fill="#ED3F22"/>
<path d="M260.88 165.152C260.232 167.881 259.503 170.596 258.672 173.286L264.107 175.013C264.984 172.15 265.761 169.276 266.441 166.399L260.88 165.152Z" fill="#ED3F22"/>
<path d="M119.807 7.06253C122.592 6.73238 125.393 6.48304 128.205 6.33778L127.971 0.636721C124.993 0.793391 122.027 1.05415 119.077 1.40844L119.807 7.06253Z" fill="#ED3F22"/>
<path d="M16.2052 84.4511C17.3163 81.8588 18.5021 79.31 19.7656 76.8122L14.708 74.1666C13.3694 76.8001 12.1147 79.4996 10.9355 82.2552L16.2052 84.4511Z" fill="#ED3F22"/>
<path d="M57.6299 31.8681C59.8837 30.1849 62.1915 28.5799 64.548 27.0508L61.4987 22.2424C59.0074 23.8576 56.5604 25.5592 54.1726 27.3412L57.6299 31.8681Z" fill="#ED3F22"/>
<path d="M164.652 9.6195C167.381 10.2682 170.095 10.9973 172.786 11.8278L174.512 6.39342C171.65 5.5159 168.776 4.73894 165.899 4.05947L164.652 9.6195Z" fill="#ED3F22"/>
<path d="M26.8483 64.5798C28.3854 62.2268 29.995 59.9227 31.6854 57.6769L27.1666 54.1982C25.3823 56.5656 23.6796 59.0042 22.0428 61.5073L26.8483 64.5798Z" fill="#ED3F22"/>
<path d="M40.8012 46.8732C41.9672 45.6335 43.1573 44.4101 44.3747 43.2103C45.1608 42.437 45.9605 41.6756 46.7686 40.9238L42.9231 36.7051C40.7514 38.7256 38.6421 40.8339 36.5986 43.0067L40.8012 46.8732Z" fill="#ED3F22"/>
<path d="M263.437 120.308C263.767 123.092 264.017 125.893 264.162 128.706L269.863 128.471C269.706 125.493 269.446 122.527 269.091 119.578L263.437 120.308Z" fill="#ED3F22"/>
<path d="M250.475 77.3086C251.732 79.8118 252.909 82.3615 254.009 84.96L259.287 82.7869C258.128 80.0465 256.878 77.3483 255.538 74.687L250.475 77.3086Z" fill="#ED3F22"/>
<path d="M264.128 142.842C263.971 145.653 263.727 148.451 263.387 151.241L269.033 151.999C269.397 149.033 269.661 146.069 269.833 143.104L264.128 142.842Z" fill="#ED3F22"/>
<path d="M258.835 98.2397C259.648 100.935 260.37 103.654 261.006 106.387L266.575 105.164C265.904 102.262 265.138 99.3817 264.281 96.5387L258.835 98.2397Z" fill="#ED3F22"/>
<path d="M205.92 27.3483C208.273 28.8854 210.577 30.495 212.823 32.1853L216.302 27.6666C213.934 25.8822 211.496 24.1796 208.993 22.5428L205.92 27.3483Z" fill="#ED3F22"/>
<path d="M186.049 16.7051C188.641 17.8163 191.19 19.0021 193.688 20.2656L196.333 15.208C193.7 13.8694 191 12.6146 188.245 11.4354L186.049 16.7051Z" fill="#ED3F22"/>
<path d="M238.632 58.13C240.315 60.3838 241.92 62.6916 243.449 65.0481L248.258 61.9988C246.642 59.5075 244.941 57.0604 243.159 54.6727L238.632 58.13Z" fill="#ED3F22"/>
<path d="M223.627 41.3012C224.866 42.4672 226.09 43.6574 227.29 44.8747C228.063 45.6608 228.824 46.4606 229.576 47.2686L233.795 43.4231C231.774 41.2514 229.666 39.1421 227.493 37.0986L223.627 41.3012Z" fill="#ED3F22"/>
<path d="M161.327 262.121C158.577 262.694 155.809 263.179 153.023 263.571L153.755 269.22C156.706 268.804 159.641 268.289 162.548 267.682L161.327 262.121Z" fill="#319CE9"/>
<path d="M116.43 263.506C113.648 263.101 110.883 262.598 108.135 262.01L106.886 267.575C109.811 268.2 112.742 268.735 115.671 269.158L116.43 263.506Z" fill="#319CE9"/>
<path d="M236.574 215.585C234.838 217.793 233.017 219.935 231.132 222.025L235.329 225.89C237.317 223.687 239.236 221.413 241.083 219.059L236.574 215.585Z" fill="#319CE9"/>
<path d="M248.914 196.718C247.583 199.2 246.174 201.631 244.693 204.013L249.498 207.086C251.065 204.572 252.557 202.002 253.972 199.363L248.914 196.718Z" fill="#319CE9"/>
<path d="M221.117 232.003C219.012 233.878 216.853 235.675 214.643 237.401L218.106 241.93C220.45 240.105 222.739 238.202 224.965 236.216L221.117 232.003Z" fill="#319CE9"/>
<path d="M8.38462 161.83C7.81118 159.08 7.32601 156.311 6.93439 153.525L1.28556 154.258C1.70134 157.208 2.21592 160.144 2.82317 163.05L8.38462 161.83Z" fill="#319CE9"/>
<path d="M14.9057 183.404C13.8628 180.787 12.8976 178.145 12.0282 175.482L6.58702 177.186C7.50914 180.019 8.52086 182.816 9.62743 185.578L14.9057 183.404Z" fill="#319CE9"/>
<path d="M5.8715 128.158C6.02838 125.347 6.27309 122.548 6.6131 119.758L0.966528 119.001C0.602803 121.967 0.338755 124.931 0.166939 127.896L5.8715 128.158Z" fill="#319CE9"/>
<path d="M54.915 237.074C52.707 235.338 50.5649 233.517 48.4746 231.632L44.6104 235.829C46.8126 237.817 49.0869 239.736 51.4407 241.582L54.915 237.074Z" fill="#319CE9"/>
<path d="M38.4967 221.617C36.6216 219.512 34.8247 217.353 33.0985 215.144L28.5694 218.606C30.3944 220.95 32.2976 223.24 34.2834 225.465L38.4967 221.617Z" fill="#319CE9"/>
<path d="M25.0236 203.547C23.5512 201.158 22.1473 198.724 20.8291 196.232L15.766 198.854C17.1576 201.481 18.6431 204.061 20.2099 206.594L25.0236 203.547Z" fill="#319CE9"/>
<path d="M87.0952 15.4057C89.713 14.3628 92.3541 13.3977 95.0171 12.5283L93.3138 7.08711C90.4804 8.00922 87.6838 9.02093 84.922 10.1275L87.0952 15.4057Z" fill="#319CE9"/>
<path d="M108.676 8.88678C111.426 8.31335 114.194 7.82818 116.98 7.43655L116.248 1.78773C113.297 2.2035 110.362 2.71809 107.455 3.32533L108.676 8.88678Z" fill="#319CE9"/>
<path d="M131.061 6.22287C132.164 6.18777 133.268 6.16541 134.371 6.16106C136.082 6.15058 137.787 6.18666 139.488 6.24601L139.75 0.541459C136.769 0.43727 133.786 0.425306 130.822 0.519613L131.061 6.22287Z" fill="#319CE9"/>
<path d="M21.091 74.2844C22.4222 71.8024 23.831 69.3713 25.3124 66.989L20.5069 63.9165C18.9399 66.4301 17.4484 69 16.0334 71.6388L21.091 74.2844Z" fill="#319CE9"/>
<path d="M12.195 94.9948C13.0738 92.3367 14.0541 89.7023 15.1125 87.088L9.84276 84.8921C8.71624 87.6697 7.68282 90.4613 6.75524 93.2661L12.195 94.9948Z" fill="#319CE9"/>
<path d="M33.4311 55.4171C35.1676 53.2091 36.9879 51.067 38.8733 48.9767L34.676 45.1125C32.6883 47.3147 30.7696 49.589 28.9229 51.9428L33.4311 55.4171Z" fill="#319CE9"/>
<path d="M153.57 7.49414C156.352 7.8987 159.117 8.40164 161.865 8.99021L163.114 3.42488C160.19 2.79986 157.258 2.26487 154.33 1.84229L153.57 7.49414Z" fill="#319CE9"/>
<path d="M175.505 12.6949C178.163 13.5738 180.797 14.5541 183.412 15.6125L185.608 10.3428C182.83 9.21623 180.038 8.18281 177.234 7.25522L175.505 12.6949Z" fill="#319CE9"/>
<path d="M261.618 109.178C262.192 111.928 262.677 114.697 263.069 117.482L268.717 116.75C268.302 113.8 267.787 110.864 267.18 107.958L261.618 109.178Z" fill="#319CE9"/>
<path d="M255.099 87.5976C256.142 90.2154 257.108 92.8565 257.977 95.5196L263.418 93.8163C262.496 90.9829 261.484 88.1863 260.378 85.4245L255.099 87.5976Z" fill="#4CC746"/>
<path d="M264.277 131.561C264.312 132.665 264.335 133.769 264.339 134.871C264.349 136.583 264.313 138.287 264.254 139.988L269.959 140.25C270.063 137.269 270.075 134.287 269.98 131.322L264.277 131.561Z" fill="#319CE9"/>
<path d="M231.503 49.3827C233.378 51.4876 235.175 53.6465 236.901 55.8564L241.43 52.3938C239.605 50.05 237.702 47.7602 235.716 45.535L231.503 49.3827Z" fill="#319CE9"/>
</svg>
