<svg width="236" height="220" viewBox="0 0 236 220" fill="none" xmlns="http://www.w3.org/2000/svg">
<path d="M110 214C110 196.036 110 185.964 110 168" stroke="#F1CD5B" stroke-width="2"/>
<circle cx="110" cy="110" r="50" fill="#F1CD5B"/>
<g filter="url(#filter0_d)">
<circle cx="110" cy="110" r="50" fill="#F1CD5B"/>
</g>
<path d="M110.68 109.711C110.68 112.898 110.164 115.672 109.133 118.031C108.102 120.375 106.672 122.258 104.844 123.68L110.516 128.133L106.039 132.094L98.7734 126.258C97.9453 126.398 97.0859 126.469 96.1953 126.469C93.3672 126.469 90.8438 125.789 88.625 124.43C86.4062 123.07 84.6875 121.133 83.4688 118.617C82.25 116.086 81.6328 113.18 81.6172 109.898V108.211C81.6172 104.852 82.2188 101.898 83.4219 99.3516C84.6406 96.7891 86.3516 94.8281 88.5547 93.4688C90.7734 92.0938 93.3047 91.4062 96.1484 91.4062C98.9922 91.4062 101.516 92.0938 103.719 93.4688C105.938 94.8281 107.648 96.7891 108.852 99.3516C110.07 101.898 110.68 104.844 110.68 108.188V109.711ZM103.555 108.164C103.555 104.586 102.914 101.867 101.633 100.008C100.352 98.1484 98.5234 97.2188 96.1484 97.2188C93.7891 97.2188 91.9688 98.1406 90.6875 99.9844C89.4062 101.812 88.7578 104.5 88.7422 108.047V109.711C88.7422 113.195 89.3828 115.898 90.6641 117.82C91.9453 119.742 93.7891 120.703 96.1953 120.703C98.5547 120.703 100.367 119.781 101.633 117.938C102.898 116.078 103.539 113.375 103.555 109.828V108.164ZM135.148 113.156H139.016V118.617H135.148V126H128.375V118.617H114.383L114.078 114.352L128.305 91.875H135.148V113.156ZM120.828 113.156H128.375V101.109L127.93 101.883L120.828 113.156Z" fill="black"/>
<path d="M209 110C189.474 110 178.526 110 159 110" stroke="#F1CD5B" stroke-width="2"/>
<path d="M110 51V51C77.4152 51 51 77.4152 51 110V110C51 142.585 77.4152 169 110 169V169" stroke="#F1CD5B" stroke-width="2"/>
<path d="M226 93V93C216.611 93 209 100.611 209 110V110C209 119.389 216.611 127 226 127V127" stroke="#F1CD5B" stroke-width="2"/>
<circle cx="226" cy="110" r="10" fill="#F1CD5B"/>
<defs>
<filter id="filter0_d" x="0" y="0" width="220" height="220" filterUnits="userSpaceOnUse" color-interpolation-filters="sRGB">
<feFlood flood-opacity="0" result="BackgroundImageFix"/>
<feColorMatrix in="SourceAlpha" type="matrix" values="0 0 0 0 0 0 0 0 0 0 0 0 0 0 0 0 0 0 127 0"/>
<feOffset/>
<feGaussianBlur stdDeviation="30"/>
<feColorMatrix type="matrix" values="0 0 0 0 0.945098 0 0 0 0 0.803922 0 0 0 0 0.356863 0 0 0 1 0"/>
<feBlend mode="normal" in2="BackgroundImageFix" result="effect1_dropShadow"/>
<feBlend mode="normal" in="SourceGraphic" in2="effect1_dropShadow" result="shape"/>
</filter>
</defs>
</svg>
