<svg width="196" height="262" viewBox="0 0 196 262" fill="none" xmlns="http://www.w3.org/2000/svg">
<g filter="url(#filter0_d)">
<circle cx="126" cy="70" r="50" fill="#F1CD5B"/>
</g>
<path d="M126.68 69.7109C126.68 72.8984 126.164 75.6719 125.133 78.0313C124.102 80.375 122.672 82.2578 120.844 83.6797L126.516 88.1328L122.039 92.0938L114.773 86.2578C113.945 86.3984 113.086 86.4688 112.195 86.4688C109.367 86.4688 106.844 85.7891 104.625 84.4297C102.406 83.0703 100.688 81.1328 99.4688 78.6172C98.25 76.0859 97.6328 73.1797 97.6172 69.8984V68.2109C97.6172 64.8516 98.2188 61.8984 99.4219 59.3516C100.641 56.7891 102.352 54.8281 104.555 53.4688C106.773 52.0938 109.305 51.4063 112.148 51.4063C114.992 51.4063 117.516 52.0938 119.719 53.4688C121.938 54.8281 123.648 56.7891 124.852 59.3516C126.07 61.8984 126.68 64.8438 126.68 68.1875V69.7109ZM119.555 68.1641C119.555 64.5859 118.914 61.8672 117.633 60.0078C116.352 58.1484 114.523 57.2188 112.148 57.2188C109.789 57.2188 107.969 58.1406 106.688 59.9844C105.406 61.8125 104.758 64.5 104.742 68.0469V69.7109C104.742 73.1953 105.383 75.8984 106.664 77.8203C107.945 79.7422 109.789 80.7031 112.195 80.7031C114.555 80.7031 116.367 79.7813 117.633 77.9375C118.898 76.0781 119.539 73.375 119.555 69.8281V68.1641ZM138 65.9375H141.609C143.328 65.9375 144.602 65.5078 145.43 64.6484C146.258 63.7891 146.672 62.6484 146.672 61.2266C146.672 59.8516 146.258 58.7813 145.43 58.0156C144.617 57.25 143.492 56.8672 142.055 56.8672C140.758 56.8672 139.672 57.2266 138.797 57.9453C137.922 58.6484 137.484 59.5703 137.484 60.7109H130.711C130.711 58.9297 131.188 57.3359 132.141 55.9297C133.109 54.5078 134.453 53.3984 136.172 52.6016C137.906 51.8047 139.812 51.4063 141.891 51.4063C145.5 51.4063 148.328 52.2734 150.375 54.0078C152.422 55.7266 153.445 58.1016 153.445 61.1328C153.445 62.6953 152.969 64.1328 152.016 65.4453C151.062 66.7578 149.812 67.7656 148.266 68.4688C150.188 69.1563 151.617 70.1875 152.555 71.5625C153.508 72.9375 153.984 74.5625 153.984 76.4375C153.984 79.4688 152.875 81.8984 150.656 83.7266C148.453 85.5547 145.531 86.4688 141.891 86.4688C138.484 86.4688 135.695 85.5703 133.523 83.7734C131.367 81.9766 130.289 79.6016 130.289 76.6484H137.062C137.062 77.9297 137.539 78.9766 138.492 79.7891C139.461 80.6016 140.648 81.0078 142.055 81.0078C143.664 81.0078 144.922 80.5859 145.828 79.7422C146.75 78.8828 147.211 77.75 147.211 76.3438C147.211 72.9375 145.336 71.2344 141.586 71.2344H138V65.9375Z" fill="black"/>
<path d="M126 262C126 209.67 126 180.33 126 128" stroke="#F1CD5B" stroke-width="2"/>
<path d="M27 70C46.5262 70 57.4738 70 77 70" stroke="#F1CD5B" stroke-width="2"/>
<path d="M10 87V87C19.3888 87 27 79.3888 27 70V70C27 60.6112 19.3888 53 10 53V53" stroke="#F1CD5B" stroke-width="2"/>
<path d="M126 129V129C158.585 129 185 102.585 185 70V70C185 37.4152 158.585 11 126 11V11" stroke="#F1CD5B" stroke-width="2"/>
<circle cx="10" cy="70.0001" r="10" transform="rotate(-180 10 70.0001)" fill="#F1CD5B"/>
<defs>
<filter id="filter0_d" x="56" y="7.62939e-06" width="140" height="140" filterUnits="userSpaceOnUse" color-interpolation-filters="sRGB">
<feFlood flood-opacity="0" result="BackgroundImageFix"/>
<feColorMatrix in="SourceAlpha" type="matrix" values="0 0 0 0 0 0 0 0 0 0 0 0 0 0 0 0 0 0 127 0"/>
<feOffset/>
<feGaussianBlur stdDeviation="10"/>
<feColorMatrix type="matrix" values="0 0 0 0 0.945098 0 0 0 0 0.803922 0 0 0 0 0.356863 0 0 0 0.5 0"/>
<feBlend mode="normal" in2="BackgroundImageFix" result="effect1_dropShadow"/>
<feBlend mode="normal" in="SourceGraphic" in2="effect1_dropShadow" result="shape"/>
</filter>
</defs>
</svg>
