<svg width="196" height="262" viewBox="0 0 196 262" fill="none" xmlns="http://www.w3.org/2000/svg">
<g filter="url(#filter0_d)">
<circle cx="70" cy="70" r="50" fill="#F1CD5B"/>
</g>
<path d="M70.6797 69.7109C70.6797 72.8984 70.1641 75.6719 69.1328 78.0312C68.1016 80.375 66.6719 82.2578 64.8438 83.6797L70.5156 88.1328L66.0391 92.0938L58.7734 86.2578C57.9453 86.3984 57.0859 86.4688 56.1953 86.4688C53.3672 86.4688 50.8438 85.7891 48.625 84.4297C46.4062 83.0703 44.6875 81.1328 43.4688 78.6172C42.25 76.0859 41.6328 73.1797 41.6172 69.8984V68.2109C41.6172 64.8516 42.2188 61.8984 43.4219 59.3516C44.6406 56.7891 46.3516 54.8281 48.5547 53.4688C50.7734 52.0938 53.3047 51.4062 56.1484 51.4062C58.9922 51.4062 61.5156 52.0938 63.7188 53.4688C65.9375 54.8281 67.6484 56.7891 68.8516 59.3516C70.0703 61.8984 70.6797 64.8438 70.6797 68.1875V69.7109ZM63.5547 68.1641C63.5547 64.5859 62.9141 61.8672 61.6328 60.0078C60.3516 58.1484 58.5234 57.2188 56.1484 57.2188C53.7891 57.2188 51.9688 58.1406 50.6875 59.9844C49.4062 61.8125 48.7578 64.5 48.7422 68.0469V69.7109C48.7422 73.1953 49.3828 75.8984 50.6641 77.8203C51.9453 79.7422 53.7891 80.7031 56.1953 80.7031C58.5547 80.7031 60.3672 79.7812 61.6328 77.9375C62.8984 76.0781 63.5391 73.375 63.5547 69.8281V68.1641ZM98.5 86H75.1094V81.3594L86.1484 69.5938C87.6641 67.9375 88.7812 66.4922 89.5 65.2578C90.2344 64.0234 90.6016 62.8516 90.6016 61.7422C90.6016 60.2266 90.2188 59.0391 89.4531 58.1797C88.6875 57.3047 87.5938 56.8672 86.1719 56.8672C84.6406 56.8672 83.4297 57.3984 82.5391 58.4609C81.6641 59.5078 81.2266 60.8906 81.2266 62.6094H74.4297C74.4297 60.5312 74.9219 58.6328 75.9062 56.9141C76.9062 55.1953 78.3125 53.8516 80.125 52.8828C81.9375 51.8984 83.9922 51.4062 86.2891 51.4062C89.8047 51.4062 92.5312 52.25 94.4688 53.9375C96.4219 55.625 97.3984 58.0078 97.3984 61.0859C97.3984 62.7734 96.9609 64.4922 96.0859 66.2422C95.2109 67.9922 93.7109 70.0312 91.5859 72.3594L83.8281 80.5391H98.5V86Z" fill="black"/>
<path d="M70 262C70 209.67 70 180.33 70 128" stroke="#F1CD5B" stroke-width="2"/>
<path d="M169 70C149.474 70 138.526 70 119 70" stroke="#F1CD5B" stroke-width="2"/>
<path d="M186 53V53C176.611 53 169 60.6112 169 70V70C169 79.3888 176.611 87 186 87V87" stroke="#F1CD5B" stroke-width="2"/>
<path d="M70 11V11C37.4152 11 11 37.4152 11 70V70C11 102.585 37.4152 129 70 129V129" stroke="#F1CD5B" stroke-width="2"/>
<circle cx="186" cy="70" r="10" fill="#F1CD5B"/>
<defs>
<filter id="filter0_d" x="0" y="0" width="140" height="140" filterUnits="userSpaceOnUse" color-interpolation-filters="sRGB">
<feFlood flood-opacity="0" result="BackgroundImageFix"/>
<feColorMatrix in="SourceAlpha" type="matrix" values="0 0 0 0 0 0 0 0 0 0 0 0 0 0 0 0 0 0 127 0"/>
<feOffset/>
<feGaussianBlur stdDeviation="10"/>
<feColorMatrix type="matrix" values="0 0 0 0 0.945098 0 0 0 0 0.803922 0 0 0 0 0.356863 0 0 0 0.5 0"/>
<feBlend mode="normal" in2="BackgroundImageFix" result="effect1_dropShadow"/>
<feBlend mode="normal" in="SourceGraphic" in2="effect1_dropShadow" result="shape"/>
</filter>
</defs>
</svg>
