<?xml version="1.0" encoding="iso-8859-1"?>
<!-- Generator: Adobe Illustrator 21.0.0, SVG Export Plug-In . SVG Version: 6.00 Build 0)  -->
<svg xmlns="http://www.w3.org/2000/svg" xmlns:xlink="http://www.w3.org/1999/xlink" version="1.1" id="Capa_1" x="0px" y="0px" viewBox="0 0 514.215 514.215" style="enable-background:new 0 0 514.215 514.215;" xml:space="preserve" width="512" height="512">
<g>
	<path style="fill:#0082FF;" d="M159.411,203.591l102.711-89.612v0l0,0l2.387-14.799l-47.406-7.645   c-48.358-7.8-97.14,6.346-133.829,38.808L0.951,203.187l76.112-21.218C106.352,173.805,137.908,182.089,159.411,203.591z"/>
	<path style="fill:#0082FF;" d="M420.888,296.313l-7.645-47.405l-14.799,2.387v0l0,0l-79.012,92.112l0,0v0l-10.6,10.6   c21.502,21.503,29.787,53.056,21.621,82.349l-21.215,76.109l72.842-82.323C414.543,393.454,428.688,344.676,420.888,296.313z"/>
	<path style="fill:#CBE8F8;" d="M513.386,15.792l-1.145-12.926l-12.763-0.946c-72.444-5.565-145.094,17.629-199.341,63.65   L124.388,214.67l4.446,128.454l38.952,43.278l132.936,4.601l149.029-175.667C495.819,161.035,519.012,88.304,513.386,15.792z"/>
	<path style="fill:#00317E;" d="M420.888,296.313l-7.645-47.405l-14.799,2.387v0l0,0l-79.012,92.112l0,0v0l-10.6,10.6   c21.502,21.503,29.787,53.056,21.621,82.349l-21.215,76.109l72.842-82.323C414.543,393.454,428.688,344.676,420.888,296.313z"/>
	<g>
		<path style="fill:#B2DCFD;" d="M512.241,2.866l-1.576-0.117L148.472,364.943l19.314,21.46l132.936,4.601l149.029-175.667    c46.068-54.302,69.261-127.033,63.635-199.544L512.241,2.866z"/>
	</g>
	<path style="fill:#FC1D5A;" d="M513.386,15.792l-1.145-12.926l-12.763-0.946c-53.399-4.102-106.9,7.439-153.07,32.212   c-0.107,34.19,12.881,68.414,38.968,94.501c26.623,26.623,61.721,39.603,96.609,38.944   C506.243,121.688,517.49,68.686,513.386,15.792z"/>
	<path style="fill:#8CD95B;" d="M237.917,214.017c-16.934,1.42-32.297,10.176-42.151,24.021L0,513.108l275.952-194.521   c13.939-9.826,22.769-25.208,24.224-42.201s-4.63-33.651-16.695-45.705C271.459,218.671,254.863,212.598,237.917,214.017z"/>
	<g>
		<path style="fill:#DD0057;" d="M512.241,2.866l-1.576-0.117L385.082,128.333c0.099,0.099,0.194,0.201,0.293,0.301    c26.623,26.623,61.721,39.603,96.609,38.944c24.259-45.889,35.506-98.891,31.402-151.785L512.241,2.866z"/>
		<path style="fill:#61C27C;" d="M275.952,318.586c13.939-9.826,22.769-25.208,24.224-42.201s-4.63-33.651-16.695-45.705    c-0.125-0.125-0.258-0.239-0.384-0.363L1.042,512.373L275.952,318.586z"/>
	</g>
</g>















</svg>
