<svg width="170" height="170" viewBox="0 0 170 170" fill="none" xmlns="http://www.w3.org/2000/svg">
<circle cx="85" cy="85" r="85" fill="#F1CD5B"/>
<path fill-rule="evenodd" clip-rule="evenodd" d="M45.7713 119.604C28.3314 99.8721 28.3315 70.1278 45.7714 50.3956L50.405 55.0292C35.5049 72.1922 35.5048 97.8077 50.4049 114.971L45.7713 119.604ZM50.3947 124.228C70.1269 141.668 99.8712 141.668 119.603 124.228L114.97 119.594C97.8069 134.494 72.1913 134.494 55.0283 119.594L50.3947 124.228ZM119.593 55.0292C134.493 72.1922 134.493 97.8078 119.593 114.971L124.227 119.604C141.667 99.8721 141.667 70.1278 124.227 50.3956L119.593 55.0292ZM119.603 45.7722C99.8712 28.3323 70.1269 28.3323 50.3948 45.7722L55.0284 50.4059C72.1913 35.5057 97.8068 35.5057 114.97 50.4058L119.603 45.7722Z" fill="white"/>
<path d="M85.4371 49.2133C85.2466 49.5562 84.7534 49.5562 84.5629 49.2133L70.4127 23.7428C70.2275 23.4096 70.4685 23 70.8498 23L99.1502 23C99.5315 23 99.7725 23.4096 99.5873 23.7428L85.4371 49.2133Z" fill="white"/>
</svg>
