<svg width="170" height="170" viewBox="0 0 170 170" fill="none" xmlns="http://www.w3.org/2000/svg">
<path d="M170 85C170 131.944 131.944 170 85 170C38.0558 170 0 131.944 0 85C0 38.0558 38.0558 0 85 0C131.944 0 170 38.0558 170 85Z" fill="#F1CD5B"/>
<path fill-rule="evenodd" clip-rule="evenodd" d="M58.1089 122.04C65.6584 127.531 74.951 130.769 85 130.769C110.278 130.769 130.769 110.278 130.769 85C130.769 59.7224 110.278 39.2308 85 39.2308C59.7224 39.2308 39.2308 59.7224 39.2308 85C39.2308 97.0936 43.9212 108.092 51.582 116.274C65.2855 115.751 77.061 106.339 80.5876 93.0813L69.0931 90.3356L90.7927 64.4747L98.4617 97.3509L86.9489 94.6009C83.279 108.647 71.962 119.152 58.1089 122.04ZM85 32.6923C56.1113 32.6923 32.6923 56.1113 32.6923 85C32.6923 113.889 56.1113 137.308 85 137.308C113.889 137.308 137.308 113.889 137.308 85C137.308 56.1113 113.889 32.6923 85 32.6923Z" fill="white"/>
</svg>
